<svg width="164" height="41" viewBox="0 0 164 41" fill="none" xmlns="http://www.w3.org/2000/svg">
<rect y="16.5" width="46" height="9" fill="#959595"/>
<rect x="3" y="0.5" width="40" height="40" rx="8" fill="#959595"/>
<path d="M27.7021 29.5L21.5581 21.1861H19.0956L26.5562 11.7019H31.1398L24.435 20.2109L24.3863 18.4798L32.5295 29.5H27.7021ZM15.9992 29.5V11.7019H19.9977V29.5H15.9992Z" fill="white"/>
<path d="M61.7021 29.5L55.5581 21.1861H53.0956L60.5562 11.7019H65.1398L58.435 20.2109L58.3863 18.4798L66.5295 29.5H61.7021ZM49.9992 29.5V11.7019H53.9977V29.5H49.9992ZM73.9261 29.9632C72.7883 29.9632 71.7806 29.7682 70.9029 29.3781C70.0414 28.988 69.3181 28.4679 68.733 27.8177C68.1641 27.1513 67.7252 26.4117 67.4164 25.599C67.1238 24.7701 66.9775 23.9249 66.9775 23.0634V22.5758C66.9775 21.6818 67.1238 20.8285 67.4164 20.0158C67.7252 19.1869 68.1641 18.4473 68.733 17.7971C69.3018 17.147 70.0089 16.635 70.8541 16.2611C71.7156 15.871 72.6908 15.676 73.7798 15.676C75.2102 15.676 76.413 16.0011 77.3882 16.6512C78.3797 17.2851 79.1355 18.1222 79.6556 19.1625C80.1757 20.1865 80.4358 21.308 80.4358 22.527V23.8436H68.611V21.625H78.0709L76.8031 22.649C76.8031 21.8525 76.6893 21.1698 76.4617 20.601C76.2342 20.0321 75.8928 19.6013 75.4377 19.3088C74.9989 18.9999 74.4462 18.8455 73.7798 18.8455C73.0971 18.8455 72.5201 18.9999 72.0488 19.3088C71.5774 19.6176 71.2198 20.0727 70.976 20.6741C70.7322 21.2592 70.6103 21.9825 70.6103 22.844C70.6103 23.6404 70.7241 24.3394 70.9516 24.9408C71.1792 25.5259 71.5368 25.981 72.0244 26.3061C72.512 26.6312 73.1459 26.7937 73.9261 26.7937C74.6413 26.7937 75.2264 26.6556 75.6815 26.3792C76.1366 26.1029 76.4455 25.7616 76.608 25.3552H80.192C79.997 26.2492 79.615 27.0457 79.0461 27.7446C78.4772 28.4435 77.762 28.988 76.9006 29.3781C76.0391 29.7682 75.0476 29.9632 73.9261 29.9632ZM85.608 29.5L81.6095 16.1392H85.6324L89.3871 29.5H85.608ZM86.8271 29.5V26.2573H90.7524V29.5H86.8271ZM88.2655 29.5L91.5082 16.1392H95.2629L91.8008 29.5H88.2655ZM102.645 29.9145C100.744 29.9145 99.2564 29.5244 98.1836 28.7442C97.1109 27.964 96.542 26.8669 96.477 25.4528H99.9391C100.004 25.8754 100.256 26.2573 100.695 26.5987C101.15 26.9237 101.825 27.0863 102.718 27.0863C103.401 27.0863 103.962 26.9725 104.401 26.745C104.856 26.5011 105.083 26.1598 105.083 25.721C105.083 25.3309 104.913 25.022 104.571 24.7945C104.23 24.5507 103.621 24.38 102.743 24.2825L101.694 24.185C100.085 24.0224 98.8744 23.5754 98.0617 22.844C97.2653 22.1126 96.8671 21.178 96.8671 20.0402C96.8671 19.0975 97.1027 18.3091 97.5741 17.6752C98.0455 17.0413 98.6956 16.5618 99.5246 16.2368C100.37 15.9117 101.329 15.7491 102.402 15.7491C104.124 15.7491 105.514 16.1311 106.571 16.895C107.627 17.6427 108.18 18.7317 108.229 20.1621H104.766C104.701 19.7232 104.474 19.3575 104.084 19.065C103.694 18.7561 103.117 18.6017 102.353 18.6017C101.751 18.6017 101.272 18.7155 100.914 18.943C100.557 19.1706 100.378 19.4794 100.378 19.8695C100.378 20.2434 100.532 20.5278 100.841 20.7229C101.15 20.9179 101.654 21.0561 102.353 21.1373L103.401 21.2349C105.043 21.4136 106.319 21.8688 107.229 22.6002C108.139 23.3316 108.594 24.315 108.594 25.5503C108.594 26.4443 108.35 27.2244 107.863 27.8909C107.375 28.541 106.684 29.0449 105.79 29.4025C104.897 29.7438 103.848 29.9145 102.645 29.9145ZM114.364 29.5L109.976 11.7019H114.096L117.534 26.8181L116.681 26.2573H118.899L117.948 26.8181L120.606 12.3602H123.922L120.435 29.5H114.364ZM124.97 29.5L121.215 12.3602H124.702L127.774 26.8181L126.847 26.2573H128.969L128.164 26.8181L131.163 11.7019H135.064L131.163 29.5H124.97ZM145.245 29.5V25.5503H144.587V21.2592C144.587 20.5766 144.424 20.0646 144.099 19.7232C143.774 19.3819 143.254 19.2112 142.539 19.2112C142.181 19.2112 141.71 19.2194 141.125 19.2356C140.54 19.2519 139.938 19.2763 139.321 19.3088C138.703 19.3413 138.142 19.3738 137.638 19.4063V16.1149C138.012 16.0823 138.451 16.0498 138.955 16.0173C139.459 15.9848 139.979 15.9604 140.515 15.9442C141.052 15.9279 141.556 15.9198 142.027 15.9198C143.392 15.9198 144.538 16.1149 145.465 16.5049C146.407 16.895 147.122 17.4883 147.61 18.2848C148.098 19.065 148.342 20.0727 148.342 21.308V29.5H145.245ZM140.978 29.8413C140.02 29.8413 139.174 29.6707 138.443 29.3293C137.728 28.988 137.167 28.5004 136.761 27.8665C136.354 27.2163 136.151 26.4443 136.151 25.5503C136.151 24.575 136.403 23.7786 136.907 23.161C137.411 22.527 138.118 22.0638 139.028 21.7712C139.938 21.4624 140.987 21.308 142.173 21.308H145.026V23.4779H142.149C141.466 23.4779 140.938 23.6486 140.564 23.9899C140.206 24.315 140.028 24.762 140.028 25.3309C140.028 25.8672 140.206 26.3061 140.564 26.6474C140.938 26.9725 141.466 27.135 142.149 27.135C142.588 27.135 142.978 27.0619 143.319 26.9156C143.677 26.7531 143.969 26.4849 144.197 26.111C144.424 25.7372 144.554 25.2171 144.587 24.5507L145.513 25.5259C145.432 26.4524 145.205 27.2326 144.831 27.8665C144.473 28.5004 143.969 28.988 143.319 29.3293C142.685 29.6707 141.905 29.8413 140.978 29.8413ZM151.413 34.7907V31.4749H154.192C154.615 31.4749 154.972 31.418 155.265 31.3042C155.557 31.2067 155.793 31.036 155.972 30.7922C156.151 30.5484 156.297 30.2152 156.411 29.7926L159.702 16.1392H163.408L159.678 30.5728C159.418 31.613 159.052 32.442 158.581 33.0596C158.125 33.6773 157.508 34.1161 156.728 34.3762C155.964 34.6525 154.988 34.7907 153.802 34.7907H151.413ZM155.606 29.2074V26.1598H158.434V29.2074H155.606ZM153.997 29.2074L149.901 16.1392H153.826L157.703 29.2074H153.997Z" fill="#959595"/>
</svg>
