<svg width="158" height="49" viewBox="0 0 158 49" fill="none" xmlns="http://www.w3.org/2000/svg">
<path d="M55.4202 18.6781V16.1871H66.3762V18.6781H62.3002V32.5531H59.4662V18.6781H55.4202ZM73.5172 23.2551C73.0781 23.1771 72.6331 23.1383 72.1872 23.1391C70.3672 23.1391 69.2972 24.3271 69.2972 26.7311V32.5241H66.6072V21.0541H69.2382V22.6761H69.2962C69.8162 21.6911 70.9732 20.6761 72.5062 20.6761C72.9392 20.6761 73.2282 20.7061 73.5172 20.7351V23.2551ZM86.3832 32.5241H83.7812V31.0761H83.7232C82.9432 32.0611 81.6992 32.9591 79.7912 32.9591C77.2182 32.9591 74.2982 30.9021 74.2982 26.7891C74.2982 23.1391 76.8712 20.7061 79.9932 20.7061C81.9012 20.7061 83.0582 21.7191 83.7532 22.6171H83.8102V21.0531H86.4122V32.5241H86.3832ZM80.4852 30.5841C82.2482 30.5841 83.8962 29.0481 83.8962 26.8461C83.8962 24.5291 82.3932 22.9941 80.5142 22.9941C78.1442 22.9941 77.0152 24.9061 77.0152 26.7891C77.0152 28.7001 78.1152 30.5841 80.4852 30.5841ZM89.5062 21.0531H92.1662V22.5021H92.2232C93.1192 21.1981 94.4492 20.6771 95.7212 20.6771C98.0922 20.6771 100.174 22.2411 100.174 25.9201V32.5241H97.4842V26.0641C97.4842 24.0941 96.5602 23.0521 95.0272 23.0521C93.3502 23.0521 92.1942 24.2401 92.1942 26.4701V32.5531H89.5052L89.5062 21.0531ZM108.298 24.0081C108.182 23.1681 107.546 22.6181 106.765 22.6181C105.84 22.6181 105.32 23.1971 105.32 23.8341C105.32 24.5291 105.667 25.0221 107.661 25.6881C110.119 26.4701 110.986 27.7451 110.986 29.3671C110.986 31.4811 109.396 32.9591 106.765 32.9591C104.019 32.9591 102.66 31.4521 102.457 29.3091H104.944C105.059 30.2651 105.638 30.9891 106.823 30.9891C107.835 30.9891 108.413 30.3521 108.413 29.5691C108.413 28.7011 107.922 28.1501 106.014 27.5131C103.874 26.8181 102.775 25.7461 102.775 23.9501C102.775 22.0671 104.25 20.6771 106.678 20.6771C109.136 20.6771 110.437 22.1251 110.726 24.0071L108.298 24.0081ZM113.328 15.7811H116.306V18.5041H113.328V15.7811ZM113.473 21.0531H116.161V32.5531H113.473V21.0531ZM124.459 24.0081C124.343 23.1681 123.707 22.6181 122.926 22.6181C122.001 22.6181 121.481 23.1971 121.481 23.8341C121.481 24.5291 121.828 25.0221 123.823 25.6881C126.28 26.4701 127.147 27.7451 127.147 29.3671C127.147 31.4811 125.557 32.9591 122.926 32.9591C120.18 32.9591 118.821 31.4521 118.619 29.3091H121.105C121.221 30.2651 121.799 30.9891 122.984 30.9891C123.996 30.9891 124.574 30.3521 124.574 29.5691C124.574 28.7011 124.083 28.1501 122.175 27.5131C120.035 26.8181 118.937 25.7461 118.937 23.9501C118.937 22.0671 120.411 20.6771 122.84 20.6771C125.297 20.6771 126.598 22.1251 126.887 24.0071L124.459 24.0081ZM128.304 21.0531H129.749V17.3751H132.438V21.0531H135.3V23.3131H132.409V28.4401C132.409 30.0041 132.901 30.4391 133.999 30.4391C134.462 30.4391 134.982 30.3521 135.387 30.2361V32.4081C134.78 32.5821 134.028 32.6691 133.363 32.6691C130.501 32.6691 129.749 30.9311 129.749 28.5851V23.3131H128.304V21.0531ZM142.615 20.6771C146.2 20.6771 148.744 23.3131 148.744 26.7891C148.744 30.1781 146.171 32.9591 142.615 32.9591C139.117 32.9591 136.486 30.2651 136.486 26.7891C136.486 23.2261 139.146 20.6771 142.615 20.6771ZM142.615 30.5541C144.639 30.5541 146.026 28.9321 146.026 26.7891C146.026 24.7611 144.725 23.0521 142.615 23.0521C140.562 23.0521 139.203 24.6451 139.203 26.7891C139.203 28.9901 140.765 30.5541 142.615 30.5541ZM156.667 23.1391C154.845 23.1391 153.776 24.3271 153.776 26.7311V32.5241H151.087V21.0541H153.718V22.6761H153.776C154.296 21.6911 155.452 20.6761 156.985 20.6761C157.418 20.6761 157.707 20.7061 157.997 20.7351V23.2551C157.558 23.1771 157.113 23.1382 156.667 23.1391ZM20.8122 38.2311C20.4439 38.2305 20.0908 38.0839 19.8306 37.8232C19.5703 37.5626 19.4242 37.2094 19.4242 36.8411V11.8701C19.4246 11.5958 19.5063 11.3278 19.6588 11.0999C19.8113 10.872 20.0279 10.6943 20.2813 10.5893C20.5346 10.4842 20.8134 10.4566 21.0825 10.5098C21.3515 10.5629 21.5988 10.6946 21.7932 10.8881C22.0532 11.1481 22.1992 11.5021 22.1992 11.8701V36.8401C22.1992 37.5931 21.5632 38.2311 20.8122 38.2311ZM15.0302 25.7471H8.38016C8.01203 25.7463 7.65925 25.5995 7.39922 25.3389C7.1392 25.0783 6.99316 24.7252 6.99316 24.3571C6.99316 23.5741 7.60016 22.9661 8.38116 22.9661H15.0312C15.3998 22.9661 15.7534 23.1125 16.014 23.3732C16.2747 23.6339 16.4212 23.9874 16.4212 24.3561C16.4212 24.7247 16.2747 25.0783 16.014 25.3389C15.7534 25.5996 15.3998 25.7461 15.0312 25.7461L15.0302 25.7471ZM33.2732 25.7471H26.5952C26.2269 25.7465 25.8738 25.5999 25.6136 25.3392C25.3533 25.0786 25.2072 24.7254 25.2072 24.3571C25.2072 23.5741 25.8142 22.9661 26.5952 22.9661H33.2452C33.6133 22.9669 33.9661 23.1137 34.2261 23.3742C34.4861 23.6348 34.6322 23.9879 34.6322 24.3561C34.6322 25.1381 34.0252 25.7471 33.2732 25.7471Z" fill="#898989"/>
<path d="M20.816 45.212C9.338 45.212 0 35.856 0 24.356C0 12.856 9.338 3.5 20.816 3.5C32.294 3.5 41.632 12.856 41.632 24.356C41.632 35.856 32.294 45.212 20.816 45.212ZM20.816 6.281C10.871 6.281 2.776 14.391 2.776 24.356C2.776 34.321 10.871 42.431 20.816 42.431C30.762 42.431 38.856 34.321 38.856 24.356C38.856 14.391 30.762 6.281 20.816 6.281Z" fill="#898989"/>
</svg>
