<svg width="113" height="41" viewBox="0 0 113 41" fill="none" xmlns="http://www.w3.org/2000/svg">
<rect y="0.5" width="42" height="40" rx="5" fill="#959595"/>
<path d="M11.9992 29.5V11.7019H15.9977V29.5H11.9992ZM15.5101 22.332V19.0162H22.3855V22.332H15.5101ZM15.5101 15.0177V11.7019H22.6781V15.0177H15.5101ZM25.8581 29.5V11.7019H29.7834V29.5H25.8581ZM24.2733 14.5789V11.7019H29.7834V14.5789H24.2733Z" fill="white"/>
<path d="M48.9992 29.5V11.7019H52.9977V29.5H48.9992ZM52.5101 22.332V19.0162H59.3855V22.332H52.5101ZM52.5101 15.0177V11.7019H59.6781V15.0177H52.5101ZM62.8581 29.5V11.7019H66.7834V29.5H62.8581ZM61.2733 14.5789V11.7019H66.7834V14.5789H61.2733ZM76.6194 29.9632C75.4817 29.9632 74.4739 29.7682 73.5962 29.3781C72.7347 28.988 72.0114 28.4679 71.4263 27.8177C70.8574 27.1513 70.4185 26.4117 70.1097 25.599C69.8171 24.7701 69.6709 23.9249 69.6709 23.0634V22.5758C69.6709 21.6818 69.8171 20.8285 70.1097 20.0158C70.4185 19.1869 70.8574 18.4473 71.4263 17.7971C71.9952 17.147 72.7022 16.635 73.5474 16.2611C74.4089 15.871 75.3841 15.676 76.4731 15.676C77.9035 15.676 79.1063 16.0011 80.0815 16.6512C81.073 17.2851 81.8288 18.1222 82.349 19.1625C82.8691 20.1865 83.1291 21.308 83.1291 22.527V23.8436H71.3044V21.625H80.7642L79.4964 22.649C79.4964 21.8525 79.3826 21.1698 79.1551 20.601C78.9275 20.0321 78.5862 19.6013 78.1311 19.3088C77.6922 18.9999 77.1396 18.8455 76.4731 18.8455C75.7905 18.8455 75.2135 18.9999 74.7421 19.3088C74.2707 19.6176 73.9131 20.0727 73.6693 20.6741C73.4255 21.2592 73.3036 21.9825 73.3036 22.844C73.3036 23.6404 73.4174 24.3394 73.645 24.9408C73.8725 25.5259 74.2301 25.981 74.7177 26.3061C75.2053 26.6312 75.8392 26.7937 76.6194 26.7937C77.3346 26.7937 77.9198 26.6556 78.3749 26.3792C78.83 26.1029 79.1388 25.7616 79.3013 25.3552H82.8853C82.6903 26.2492 82.3083 27.0457 81.7394 27.7446C81.1705 28.4435 80.4554 28.988 79.5939 29.3781C78.7324 29.7682 77.741 29.9632 76.6194 29.9632ZM84.2773 29.5L88.4221 22.332L88.3246 22.9415L84.4236 16.1392H88.6415L91.0552 20.6741H91.4453L93.7128 16.1392H97.6869L93.9566 22.9903L94.0541 22.4783L98.4427 29.5H94.2004L91.3234 24.6482H90.9333L88.2271 29.5H84.2773ZM100.383 34.7907V31.4749H103.162C103.585 31.4749 103.943 31.418 104.235 31.3042C104.528 31.2067 104.763 31.036 104.942 30.7922C105.121 30.5484 105.267 30.2152 105.381 29.7926L108.673 16.1392H112.378L108.648 30.5728C108.388 31.613 108.022 32.442 107.551 33.0596C107.096 33.6773 106.478 34.1161 105.698 34.3762C104.934 34.6525 103.959 34.7907 102.772 34.7907H100.383ZM104.577 29.2074V26.1598H107.405V29.2074H104.577ZM102.967 29.2074L98.8714 16.1392H102.797L106.673 29.2074H102.967Z" fill="#959595"/>
</svg>
