<svg width="158" height="49" viewBox="0 0 158 49" fill="none" xmlns="http://www.w3.org/2000/svg">
<path fill-rule="evenodd" clip-rule="evenodd" d="M45 4.5L27 10.5V30L33 32V37.5L51 43.5V12L45 14V4.5ZM35 32.667L45 36V16.108L49 14.775V40.725L35 36.06V32.667Z" fill="#898989"/>
<path d="M69.9001 20.9501V31.5001H74.3471V20.9501H77.8771V17.5581H66.3901V20.9511L69.9001 20.9501ZM80.1061 25.7481C80.1061 29.7261 82.4061 31.7541 86.4821 31.7541C90.3821 31.7541 92.8781 29.9011 92.8781 25.7091V17.5591H88.4321V25.5531C88.4321 27.3861 88.0421 28.2831 86.4821 28.2831C84.9021 28.2831 84.5121 27.3861 84.5121 25.5731V17.5581H80.1061V25.7481Z" fill="#898989"/>
<path fill-rule="evenodd" clip-rule="evenodd" d="M95.9692 31.5001V17.5581H101.527C105.544 17.5581 107.26 19.3521 107.26 22.3351V22.4131C107.26 25.3191 105.33 26.9571 101.722 26.9571H100.376V31.5001H95.9692ZM101.292 23.9931H100.376V20.8531H101.312C102.462 20.8531 103.067 21.2831 103.067 22.3551V22.4331C103.067 23.4661 102.462 23.9931 101.292 23.9931Z" fill="#898989"/>
<path d="M109.562 31.5001V17.5581H113.989V28.0881H119.059V31.5001H109.562ZM121.561 17.5581V31.5001H131.779V28.1071H125.968V26.0211H130.336V22.9211H125.968V20.9511H131.467V17.5581H121.561Z" fill="#898989"/>
</svg>
