<svg width="161" height="43" viewBox="0 0 161 43" fill="none" xmlns="http://www.w3.org/2000/svg">
<circle cx="21" cy="21.5" r="20" stroke="#959595" stroke-width="2"/>
<circle cx="21" cy="7.5" r="3" fill="#959595"/>
<circle cx="21" cy="36.5" r="3" fill="#959595"/>
<circle cx="7" cy="21.5" r="3" fill="#959595"/>
<circle cx="36" cy="21.5" r="3" fill="#959595"/>
<path d="M60.507 30V12.2019H64.5055V30H60.507ZM48.9992 30V12.2019H52.9977V30H48.9992ZM52.2907 22.8076V19.2968H61.2141V22.8076H52.2907ZM74.9114 30.4632C73.7411 30.4632 72.7009 30.2844 71.7907 29.9269C70.8804 29.553 70.1084 29.0491 69.4745 28.4152C68.8568 27.7813 68.3855 27.058 68.0604 26.2453C67.7353 25.4164 67.5728 24.5468 67.5728 23.6366V23.0758C67.5728 22.1493 67.7353 21.2716 68.0604 20.4427C68.4017 19.5975 68.8893 18.8579 69.5232 18.224C70.1734 17.5901 70.9536 17.0943 71.8638 16.7368C72.774 16.3629 73.7899 16.176 74.9114 16.176C76.0655 16.176 77.0895 16.3629 77.9834 16.7368C78.8937 17.0943 79.6657 17.5901 80.2996 18.224C80.9335 18.8579 81.4211 19.5975 81.7625 20.4427C82.1038 21.2716 82.2745 22.1493 82.2745 23.0758V23.6366C82.2745 24.5468 82.1119 25.4164 81.7869 26.2453C81.4618 27.058 80.9823 27.7813 80.3484 28.4152C79.7307 29.0491 78.9668 29.553 78.0566 29.9269C77.1464 30.2844 76.098 30.4632 74.9114 30.4632ZM74.9114 27.1718C75.6754 27.1718 76.3093 27.0093 76.8131 26.6842C77.317 26.3591 77.699 25.904 77.9591 25.3189C78.2354 24.7337 78.3735 24.0836 78.3735 23.3684C78.3735 22.6044 78.2354 21.938 77.9591 21.3691C77.6827 20.784 77.2845 20.3208 76.7644 19.9794C76.2605 19.6381 75.6429 19.4674 74.9114 19.4674C74.1963 19.4674 73.5786 19.6381 73.0585 19.9794C72.5384 20.3208 72.1401 20.784 71.8638 21.3691C71.6037 21.938 71.4737 22.6044 71.4737 23.3684C71.4737 24.0836 71.6037 24.7337 71.8638 25.3189C72.1239 25.904 72.514 26.3591 73.0341 26.6842C73.5542 27.0093 74.18 27.1718 74.9114 27.1718ZM85.1189 34.8762V16.6392H88.2152V22.4175L87.8008 22.3931C87.8658 21.0603 88.1421 19.9388 88.6297 19.0286C89.1173 18.1021 89.7756 17.4113 90.6046 16.9562C91.4335 16.4848 92.3681 16.2491 93.4084 16.2491C94.3349 16.2491 95.1719 16.4198 95.9196 16.7611C96.6836 17.1025 97.3337 17.582 97.8701 18.1996C98.4227 18.801 98.8372 19.5162 99.1135 20.3451C99.4061 21.1578 99.5524 22.0518 99.5524 23.027V23.5878C99.5524 24.5468 99.4142 25.4489 99.1379 26.2941C98.8616 27.123 98.4552 27.8463 97.9189 28.464C97.3987 29.0817 96.7567 29.5693 95.9928 29.9269C95.2451 30.2682 94.3836 30.4389 93.4084 30.4389C92.4006 30.4389 91.4904 30.2357 90.6777 29.8293C89.8813 29.4067 89.2392 28.7728 88.7516 27.9276C88.264 27.0662 87.9958 25.9771 87.9471 24.6606L89.0198 26.1234V34.8762H85.1189ZM92.3112 27.1718C92.9777 27.1718 93.5547 27.0093 94.0423 26.6842C94.5462 26.3591 94.9363 25.904 95.2126 25.3189C95.4889 24.7337 95.6271 24.0592 95.6271 23.2952C95.6271 22.5313 95.4889 21.8649 95.2126 21.296C94.9363 20.7271 94.5543 20.2883 94.0667 19.9794C93.5791 19.6543 92.9939 19.4918 92.3112 19.4918C91.7261 19.4918 91.1735 19.63 90.6533 19.9063C90.1332 20.1826 89.7106 20.5808 89.3855 21.101C89.0767 21.6048 88.9223 22.2225 88.9223 22.9539V23.856C88.9223 24.5549 89.0848 25.1563 89.4099 25.6602C89.7512 26.1478 90.182 26.5217 90.7021 26.7817C91.2222 27.0418 91.7586 27.1718 92.3112 27.1718ZM108.503 30.4632C107.365 30.4632 106.358 30.2682 105.48 29.8781C104.619 29.488 103.895 28.9679 103.31 28.3177C102.741 27.6513 102.302 26.9117 101.994 26.099C101.701 25.2701 101.555 24.4249 101.555 23.5634V23.0758C101.555 22.1818 101.701 21.3285 101.994 20.5158C102.302 19.6869 102.741 18.9473 103.31 18.2971C103.879 17.647 104.586 17.135 105.431 16.7611C106.293 16.371 107.268 16.176 108.357 16.176C109.787 16.176 110.99 16.5011 111.965 17.1512C112.957 17.7851 113.713 18.6222 114.233 19.6625C114.753 20.6865 115.013 21.808 115.013 23.027V24.3436H103.188V22.125H112.648L111.38 23.149C111.38 22.3525 111.266 21.6698 111.039 21.101C110.811 20.5321 110.47 20.1013 110.015 19.8088C109.576 19.4999 109.023 19.3455 108.357 19.3455C107.674 19.3455 107.097 19.4999 106.626 19.8088C106.155 20.1176 105.797 20.5727 105.553 21.1741C105.309 21.7592 105.187 22.4825 105.187 23.344C105.187 24.1404 105.301 24.8394 105.529 25.4408C105.756 26.0259 106.114 26.481 106.602 26.8061C107.089 27.1312 107.723 27.2937 108.503 27.2937C109.218 27.2937 109.804 27.1556 110.259 26.8792C110.714 26.6029 111.023 26.2616 111.185 25.8552H114.769C114.574 26.7492 114.192 27.5457 113.623 28.2446C113.054 28.9435 112.339 29.488 111.478 29.8781C110.616 30.2682 109.625 30.4632 108.503 30.4632ZM116.257 30L122.133 12.2019H128.594L134.689 30H130.544L125.619 14.9569L126.887 15.469H123.742L125.058 14.9569L120.255 30H116.257ZM120.719 25.587L121.938 22.2712H128.911L130.154 25.587H120.719ZM137.547 30V16.6392H141.448V30H137.547ZM135.767 19.5162V16.6392H141.448V19.5162H135.767ZM139.059 15.3227C138.327 15.3227 137.783 15.1357 137.425 14.7619C137.084 14.3718 136.913 13.8842 136.913 13.299C136.913 12.6976 137.084 12.21 137.425 11.8362C137.783 11.4461 138.327 11.251 139.059 11.251C139.79 11.251 140.326 11.4461 140.668 11.8362C141.025 12.21 141.204 12.6976 141.204 13.299C141.204 13.8842 141.025 14.3718 140.668 14.7619C140.326 15.1357 139.79 15.3227 139.059 15.3227ZM150.688 30.4389C149.745 30.4389 148.884 30.2682 148.104 29.9269C147.34 29.5855 146.673 29.1142 146.104 28.5128C145.535 27.8951 145.097 27.1718 144.788 26.3429C144.495 25.5139 144.349 24.6199 144.349 23.661V23.1002C144.349 22.1412 144.487 21.2472 144.763 20.4183C145.056 19.5893 145.47 18.866 146.007 18.2484C146.559 17.6145 147.218 17.1269 147.982 16.7855C148.746 16.4279 149.599 16.2491 150.542 16.2491C151.614 16.2491 152.541 16.4848 153.321 16.9562C154.101 17.4113 154.711 18.094 155.15 19.0042C155.589 19.8982 155.832 21.0034 155.881 22.32L154.857 21.3691V12.2019H158.782V30H155.686V24.4655H156.222C156.174 25.7333 155.906 26.8142 155.418 27.7082C154.947 28.6022 154.305 29.2848 153.492 29.7562C152.679 30.2113 151.745 30.4389 150.688 30.4389ZM151.663 27.1718C152.265 27.1718 152.809 27.0418 153.297 26.7817C153.801 26.5054 154.199 26.1072 154.491 25.587C154.8 25.0669 154.955 24.4411 154.955 23.7097V22.8076C154.955 22.0924 154.8 21.491 154.491 21.0034C154.183 20.5158 153.776 20.142 153.272 19.8819C152.769 19.6218 152.224 19.4918 151.639 19.4918C150.989 19.4918 150.404 19.6625 149.883 20.0038C149.38 20.3289 148.981 20.784 148.689 21.3691C148.396 21.938 148.25 22.6044 148.25 23.3684C148.25 24.1486 148.396 24.8231 148.689 25.392C148.981 25.9609 149.388 26.3997 149.908 26.7086C150.428 27.0174 151.013 27.1718 151.663 27.1718Z" fill="#959595"/>
</svg>
