<svg width="158" height="49" viewBox="0 0 158 49" fill="none" xmlns="http://www.w3.org/2000/svg">
<path fill-rule="evenodd" clip-rule="evenodd" d="M24.0051 7.29883C37.8471 4.86883 41.8351 7.54282 44.2951 21.4588C46.7581 35.3718 44.2531 39.1888 30.0891 41.6778C15.9241 44.1648 12.2621 41.4378 9.79911 27.5198C7.33511 13.5998 10.1641 9.73183 24.0051 7.29883ZM25.6001 13.4468C22.9501 13.9128 21.0341 15.1248 19.9321 16.8868C19.0671 18.2708 18.7911 19.8918 19.0411 21.2048C19.5931 24.0998 21.9911 25.9218 26.8501 26.2898L27.2301 26.3168L27.6071 26.3468L27.9651 26.3808C29.6591 26.5498 30.7431 26.8368 31.3411 27.2058C31.7411 27.4508 31.9011 27.7188 32.0151 28.3678C32.2331 29.5998 31.2701 30.7158 28.7351 31.1608C27.0581 31.4558 25.2681 31.1008 23.3121 30.0378C22.819 29.7702 22.24 29.7087 21.7017 29.8666C21.1634 30.0246 20.7094 30.3892 20.4391 30.8808C20.3058 31.1241 20.2219 31.3913 20.1922 31.6671C20.1626 31.9429 20.1878 32.2219 20.2664 32.4879C20.3451 32.7539 20.4756 33.0018 20.6504 33.2171C20.8252 33.4325 21.0409 33.6112 21.2851 33.7428C24.0451 35.2428 26.7941 35.7868 29.4711 35.3168C34.1441 34.4958 36.8461 31.3678 36.1861 27.6348C35.5581 24.0908 33.0501 22.5088 27.5151 22.1068L27.1501 22.0808C25.3681 21.9448 24.2521 21.5998 23.6631 21.1608C23.3721 20.9428 23.2641 20.7508 23.2001 20.4188C23.1451 20.1228 23.2371 19.5798 23.5251 19.1188C23.9681 18.4128 24.8301 17.8668 26.3361 17.6028C27.6711 17.3678 28.9611 17.5928 30.2831 18.3088C30.5888 18.4741 30.9303 18.5618 31.2778 18.5641C31.6253 18.5664 31.968 18.4834 32.2758 18.3222C32.5837 18.161 32.8472 17.9267 33.0432 17.6398C33.2393 17.3529 33.3618 17.0222 33.4001 16.6768C33.4445 16.2614 33.3641 15.8422 33.1693 15.4726C32.9744 15.1031 32.6739 14.7999 32.3061 14.6018C30.1571 13.4378 27.8961 13.0428 25.6001 13.4468Z" fill="#898989"/>
<path d="M59.7918 31.8398C62.9458 31.8398 65.1558 30.1858 65.1558 27.4048V27.3628C65.1558 24.8998 63.5258 23.7748 60.3488 23.0118C57.4518 22.3328 56.7658 21.8228 56.7658 20.6768V20.6338C56.7658 19.6588 57.6658 18.8738 59.2128 18.8738C60.3928 18.8738 61.5078 19.2558 62.6668 19.9988C62.8818 20.1258 63.0968 20.1898 63.3538 20.1898C64.0398 20.1898 64.5978 19.6588 64.5978 18.9798C64.5978 18.4698 64.3188 18.1088 64.0178 17.9388C62.6678 17.0478 61.1428 16.5588 59.2538 16.5588C56.2728 16.5588 54.1268 18.3208 54.1268 20.8688V20.9108C54.1268 23.6478 55.9288 24.5818 59.1268 25.3468C61.9148 25.9828 62.5158 26.5568 62.5158 27.6168V27.6598C62.5158 28.7618 61.4858 29.5268 59.8558 29.5268C58.2248 29.5268 56.8948 28.9768 55.6498 27.9998C55.4788 27.8728 55.2428 27.7658 54.8778 27.7658C54.1918 27.7658 53.6328 28.2958 53.6328 28.9758C53.6328 29.3998 53.8468 29.7618 54.1488 29.9728C55.779 31.1879 57.7586 31.8429 59.7918 31.8398ZM71.1898 31.8628C72.9278 31.8628 74.1078 31.1408 74.8798 30.2278V30.6518C74.8798 31.2258 75.3958 31.7348 76.1468 31.7348C76.8548 31.7348 77.4118 31.2038 77.4118 30.5038V24.9858C77.4118 23.5208 77.0258 22.3328 76.1898 21.5258C75.3958 20.7198 74.1298 20.2738 72.4348 20.2738C70.9548 20.2738 69.8598 20.5288 68.7868 20.9328C68.582 21.0144 68.4058 21.1545 68.2799 21.3354C68.154 21.5164 68.0841 21.7304 68.0788 21.9508C68.0788 22.5448 68.5718 23.0108 69.1738 23.0108C69.3114 23.0089 69.4481 22.9877 69.5798 22.9478C70.2878 22.6718 71.1048 22.5028 72.0908 22.5028C73.9148 22.5028 74.9028 23.3508 74.9028 24.9438V25.2188C73.9184 24.8992 72.8887 24.7414 71.8538 24.7518C69.0878 24.7518 67.1778 25.9408 67.1778 28.3598V28.4028C67.1778 30.6528 69.0658 31.8628 71.1898 31.8628ZM71.9198 29.9958C70.6738 29.9958 69.7098 29.3788 69.7098 28.2958V28.2538C69.7098 27.0858 70.6958 26.3868 72.3698 26.3868C73.3998 26.3868 74.2798 26.5768 74.9438 26.8318V27.5968C74.9438 29.0168 73.6358 29.9938 71.9188 29.9938L71.9198 29.9958ZM84.8398 31.8398C85.5478 31.8398 86.0198 31.3728 86.3198 30.7138L90.0968 22.1408C90.1898 21.9488 90.2408 21.7388 90.2468 21.5248C90.2468 20.8248 89.6898 20.2948 88.9818 20.2948C88.2948 20.2948 87.9518 20.7398 87.7588 21.1848L84.7978 28.6548L81.8788 21.2288C81.6648 20.6968 81.2988 20.2948 80.5918 20.2948C79.8838 20.2948 79.3048 20.8888 79.3048 21.5248C79.3048 21.7578 79.3908 21.9708 79.4548 22.1618L83.2318 30.7138C83.5318 31.3938 84.0038 31.8388 84.7108 31.8388H84.8408L84.8398 31.8398ZM97.0538 31.8398C97.7618 31.8398 98.2338 31.3728 98.5338 30.7138L102.311 22.1408C102.404 21.9488 102.455 21.7388 102.461 21.5248C102.461 20.8248 101.904 20.2948 101.196 20.2948C100.509 20.2948 100.166 20.7398 99.9728 21.1848L97.0108 28.6548L94.0928 21.2288C93.8778 20.6968 93.5128 20.2948 92.8058 20.2948C92.0978 20.2948 91.5188 20.8888 91.5188 21.5248C91.5188 21.7578 91.6048 21.9708 91.6688 22.1618L95.4438 30.7138C95.7458 31.3938 96.2178 31.8388 96.9258 31.8388L97.0538 31.8398ZM106.607 35.0868C108.432 35.0868 109.461 34.2378 110.427 31.9468L114.568 22.1188C114.611 21.9918 114.675 21.7168 114.675 21.5038C114.675 20.8238 114.117 20.2938 113.431 20.2938C112.765 20.2938 112.4 20.7398 112.186 21.2698L109.354 28.7198L106.307 21.2698C106.071 20.6758 105.706 20.2948 105.041 20.2948C104.312 20.2948 103.754 20.8248 103.754 21.5468C103.754 21.7158 103.817 21.9708 103.904 22.1618L108.109 31.4578L108.023 31.6908C107.594 32.5608 107.187 32.8808 106.414 32.8808C106.049 32.8808 105.813 32.8158 105.513 32.7308C105.384 32.6888 105.256 32.6458 105.041 32.6458C104.831 32.6442 104.625 32.7059 104.451 32.8227C104.277 32.9395 104.141 33.1061 104.063 33.3008C104.011 33.4301 103.986 33.5686 103.99 33.7078C103.99 34.3228 104.419 34.6418 104.805 34.7688C105.341 34.9798 105.878 35.0868 106.607 35.0868ZM124.378 31.8818C126.803 31.8818 128.412 31.1168 129.829 29.8878C129.962 29.7714 130.07 29.6279 130.144 29.4669C130.218 29.3059 130.257 29.131 130.258 28.9538C130.258 28.2958 129.679 27.7438 129.013 27.7438C128.691 27.7438 128.412 27.8718 128.219 28.0398C127.125 28.9538 126.051 29.4618 124.464 29.4618C121.589 29.4618 119.507 27.1068 119.507 24.1998V24.1568C119.507 21.2488 121.611 18.9138 124.464 18.9138C125.902 18.9138 127.018 19.4238 128.047 20.2518C128.276 20.4213 128.555 20.5106 128.841 20.5058C129.572 20.5058 130.151 19.9548 130.151 19.2328C130.151 18.7658 129.914 18.4058 129.636 18.1928C128.326 17.1948 126.803 16.5168 124.485 16.5168C119.936 16.5168 116.74 19.9768 116.74 24.1998V24.2418C116.74 28.5068 120.001 31.8818 124.378 31.8818ZM136.163 31.8608C137.902 31.8608 139.081 31.1398 139.855 30.2268V30.6508C139.855 31.2248 140.369 31.7338 141.119 31.7338C141.828 31.7338 142.386 31.2028 142.386 30.5028V24.9848C142.386 23.5198 142 22.3318 141.162 21.5248C140.369 20.7188 139.103 20.2728 137.408 20.2728C135.927 20.2728 134.833 20.5278 133.76 20.9318C133.555 21.0134 133.379 21.1534 133.252 21.3343C133.126 21.5153 133.056 21.7293 133.051 21.9498C133.051 22.5438 133.546 23.0098 134.146 23.0098C134.284 23.0088 134.421 22.9868 134.553 22.9468C135.262 22.6708 136.077 22.5018 137.064 22.5018C138.888 22.5018 139.875 23.3498 139.875 24.9428V25.2178C138.891 24.8983 137.862 24.7406 136.828 24.7508C134.061 24.7508 132.15 25.9398 132.15 28.3588V28.4018C132.15 30.6518 134.039 31.8608 136.163 31.8608ZM136.892 29.9928C135.648 29.9928 134.683 29.3778 134.683 28.2948V28.2528C134.683 27.0848 135.67 26.3858 137.343 26.3858C138.374 26.3858 139.253 26.5758 139.918 26.8308V27.5958C139.918 29.0158 138.608 29.9928 136.892 29.9928ZM146.896 31.7328C147.626 31.7328 148.205 31.1828 148.205 30.4598V17.3028C148.205 16.6028 147.626 16.0298 146.896 16.0298C146.167 16.0298 145.608 16.6018 145.608 17.3028V30.4608C145.608 31.1838 146.189 31.7348 146.896 31.7348V31.7328Z" fill="#898989"/>
</svg>
