<svg width="144" height="45" viewBox="0 0 144 45" fill="none" xmlns="http://www.w3.org/2000/svg">
<path d="M58.192 33.9632C56.5829 33.9632 55.2257 33.7113 54.1204 33.2074C53.0151 32.6873 52.178 31.9884 51.6091 31.1107C51.0403 30.2167 50.7558 29.1927 50.7558 28.0387H54.6324C54.6324 28.4938 54.7543 28.9164 54.9981 29.3065C55.2582 29.6966 55.6483 30.0135 56.1684 30.2573C56.6885 30.4849 57.363 30.5987 58.192 30.5987C58.9397 30.5987 59.5655 30.5011 60.0693 30.3061C60.5732 30.111 60.9552 29.8429 61.2152 29.5015C61.4753 29.1439 61.6053 28.7376 61.6053 28.2825C61.6053 27.7136 61.3615 27.2666 60.8739 26.9415C60.3863 26.6002 59.598 26.3808 58.509 26.2832L57.168 26.1613C55.3963 26.015 53.9822 25.4624 52.9257 24.5034C51.8692 23.5444 51.341 22.2766 51.341 20.7C51.341 19.5622 51.6091 18.5789 52.1455 17.7499C52.6982 16.921 53.4621 16.287 54.4373 15.8482C55.4126 15.3931 56.5666 15.1655 57.8994 15.1655C59.2973 15.1655 60.4919 15.4093 61.4834 15.8969C62.4912 16.3683 63.2632 17.0429 63.7996 17.9206C64.336 18.782 64.6042 19.7979 64.6042 20.9682H60.7032C60.7032 20.5293 60.5976 20.1311 60.3863 19.7735C60.175 19.3997 59.858 19.099 59.4354 18.8714C59.0291 18.6439 58.5171 18.5301 57.8994 18.5301C57.3143 18.5301 56.8185 18.6276 56.4122 18.8227C56.0221 19.0177 55.7295 19.2859 55.5345 19.6272C55.3394 19.9523 55.2419 20.3099 55.2419 20.7C55.2419 21.2039 55.4207 21.6427 55.7783 22.0166C56.1359 22.3904 56.721 22.6098 57.5337 22.6749L58.899 22.7968C60.1994 22.9105 61.3453 23.195 62.3368 23.6501C63.3283 24.089 64.1003 24.6985 64.653 25.4787C65.2218 26.2426 65.5063 27.1772 65.5063 28.2825C65.5063 29.4203 65.2056 30.4199 64.6042 31.2813C64.019 32.1265 63.182 32.7848 62.093 33.2562C61.0039 33.7276 59.7036 33.9632 58.192 33.9632ZM74.6733 33.9632C73.503 33.9632 72.4628 33.7844 71.5526 33.4269C70.6424 33.053 69.8703 32.5491 69.2364 31.9152C68.6187 31.2813 68.1474 30.558 67.8223 29.7453C67.4972 28.9164 67.3347 28.0468 67.3347 27.1366V26.5758C67.3347 25.6493 67.4972 24.7716 67.8223 23.9427C68.1636 23.0975 68.6512 22.3579 69.2851 21.724C69.9353 21.0901 70.7155 20.5943 71.6257 20.2368C72.5359 19.8629 73.5518 19.676 74.6733 19.676C75.8274 19.676 76.8514 19.8629 77.7453 20.2368C78.6556 20.5943 79.4276 21.0901 80.0615 21.724C80.6954 22.3579 81.1831 23.0975 81.5244 23.9427C81.8657 24.7716 82.0364 25.6493 82.0364 26.5758V27.1366C82.0364 28.0468 81.8738 28.9164 81.5488 29.7453C81.2237 30.558 80.7442 31.2813 80.1103 31.9152C79.4926 32.5491 78.7287 33.053 77.8185 33.4269C76.9083 33.7844 75.8599 33.9632 74.6733 33.9632ZM74.6733 30.6718C75.4373 30.6718 76.0712 30.5093 76.575 30.1842C77.0789 29.8591 77.4609 29.404 77.721 28.8189C77.9973 28.2337 78.1354 27.5836 78.1354 26.8684C78.1354 26.1044 77.9973 25.438 77.721 24.8691C77.4446 24.284 77.0464 23.8208 76.5263 23.4794C76.0224 23.1381 75.4048 22.9674 74.6733 22.9674C73.9582 22.9674 73.3405 23.1381 72.8204 23.4794C72.3003 23.8208 71.902 24.284 71.6257 24.8691C71.3657 25.438 71.2356 26.1044 71.2356 26.8684C71.2356 27.5836 71.3657 28.2337 71.6257 28.8189C71.8858 29.404 72.2759 29.8591 72.796 30.1842C73.3161 30.5093 73.9419 30.6718 74.6733 30.6718ZM85.0514 33.5V15.7019H88.9768V33.5H85.0514ZM83.4667 18.5789V15.7019H88.9768V18.5789H83.4667ZM95.2775 33.5L91.2791 20.1392H95.3019L99.0566 33.5H95.2775ZM96.4966 33.5V30.2573H100.422V33.5H96.4966ZM97.9351 33.5L101.178 20.1392H104.932L101.47 33.5H97.9351ZM113.173 33.9632C112.035 33.9632 111.027 33.7682 110.15 33.3781C109.288 32.988 108.565 32.4679 107.98 31.8177C107.411 31.1513 106.972 30.4117 106.663 29.599C106.37 28.7701 106.224 27.9249 106.224 27.0634V26.5758C106.224 25.6818 106.37 24.8285 106.663 24.0158C106.972 23.1869 107.411 22.4473 107.98 21.7971C108.549 21.147 109.256 20.635 110.101 20.2611C110.962 19.871 111.937 19.676 113.026 19.676C114.457 19.676 115.66 20.0011 116.635 20.6512C117.626 21.2851 118.382 22.1222 118.902 23.1625C119.422 24.1865 119.682 25.308 119.682 26.527V27.8436H107.858V25.625H117.318L116.05 26.649C116.05 25.8525 115.936 25.1698 115.708 24.601C115.481 24.0321 115.139 23.6013 114.684 23.3088C114.246 22.9999 113.693 22.8455 113.026 22.8455C112.344 22.8455 111.767 22.9999 111.295 23.3088C110.824 23.6176 110.466 24.0727 110.223 24.6741C109.979 25.2592 109.857 25.9825 109.857 26.844C109.857 27.6404 109.971 28.3394 110.198 28.9408C110.426 29.5259 110.783 29.981 111.271 30.3061C111.759 30.6312 112.393 30.7937 113.173 30.7937C113.888 30.7937 114.473 30.6556 114.928 30.3792C115.383 30.1029 115.692 29.7616 115.855 29.3552H119.439C119.244 30.2492 118.862 31.0457 118.293 31.7446C117.724 32.4435 117.009 32.988 116.147 33.3781C115.286 33.7682 114.294 33.9632 113.173 33.9632ZM123.023 33.5V20.1392H126.924V33.5H123.023ZM121.243 23.0162V20.1392H126.924V23.0162H121.243ZM124.535 18.8227C123.803 18.8227 123.259 18.6357 122.901 18.2619C122.56 17.8718 122.389 17.3842 122.389 16.799C122.389 16.1976 122.56 15.71 122.901 15.3362C123.259 14.9461 123.803 14.751 124.535 14.751C125.266 14.751 125.803 14.9461 126.144 15.3362C126.502 15.71 126.68 16.1976 126.68 16.799C126.68 17.3842 126.502 17.8718 126.144 18.2619C125.803 18.6357 125.266 18.8227 124.535 18.8227ZM134.409 33.5V18.7008H138.407V33.5H134.409ZM129.411 19.1884V15.7019H143.43V19.1884H129.411Z" fill="#959595"/>
<circle cx="22" cy="22.5" r="22" fill="#959595"/>
<path d="M25.4906 31.4552C23.9928 32.0435 22.6375 32.3052 21.4245 32.2404C20.2056 32.1604 19.1709 31.8159 18.3205 31.207C17.4642 30.5829 16.825 29.7338 16.4031 28.6597L20.0112 27.2423C20.1776 27.6659 20.4456 28.0147 20.8152 28.2886C21.1999 28.5566 21.6788 28.709 22.2521 28.7457C22.8194 28.7674 23.4888 28.6266 24.2604 28.3236C24.9563 28.0502 25.5031 27.7306 25.9008 27.3648C26.2984 26.9991 26.5559 26.6098 26.6732 26.197C26.7845 25.7691 26.7569 25.3433 26.5905 24.9197C26.3825 24.3902 25.9922 24.0633 25.4195 23.939C24.8408 23.7996 24.0268 23.8836 22.9776 24.191L21.6849 24.5678C19.9824 25.0795 18.4641 25.0821 17.1302 24.5758C15.7962 24.0695 14.841 23.0826 14.2645 21.6152C13.8485 20.5562 13.7386 19.5428 13.9347 18.5751C14.146 17.6015 14.6253 16.7322 15.3725 15.9672C16.1139 15.187 17.1048 14.5532 18.3453 14.0659C19.6464 13.5548 20.8475 13.345 21.9486 13.4363C23.0589 13.5066 24.0242 13.8521 24.8443 14.473C25.6585 15.0787 26.2796 15.9262 26.7075 17.0154L23.0766 18.4417C22.9162 18.0332 22.6722 17.7012 22.3448 17.4456C22.0114 17.1749 21.6065 17.0109 21.13 16.9537C20.6685 16.8904 20.1504 16.9717 19.5755 17.1976C19.0309 17.4115 18.6051 17.6835 18.2982 18.0136C18.0064 18.3378 17.8322 18.6944 17.7754 19.0834C17.7128 19.4573 17.7527 19.8258 17.8954 20.1889C18.0796 20.6579 18.4065 21.001 18.876 21.2182C19.3455 21.4354 19.9703 21.4257 20.7505 21.1891L22.0659 20.8033C23.3178 20.4338 24.4884 20.2796 25.5776 20.3407C26.6609 20.3866 27.6024 20.6716 28.402 21.1958C29.2108 21.6988 29.8173 22.4647 30.2214 23.4934C30.6374 24.5524 30.723 25.5928 30.4782 26.6145C30.2426 27.6151 29.7042 28.5339 28.8629 29.3708C28.0216 30.2077 26.8975 30.9025 25.4906 31.4552Z" fill="white"/>
</svg>
