<svg width="158" height="49" viewBox="0 0 158 49" fill="none" xmlns="http://www.w3.org/2000/svg">
<path fill-rule="evenodd" clip-rule="evenodd" d="M35.2779 34.1769C35.2779 36.6199 34.4279 37.6189 32.1129 37.6189H11.5709C9.25486 37.6189 8.40586 36.6189 8.40586 34.1769V29.4199C8.40586 27.1259 7.30086 25.8299 6.23886 25.2359C6.1658 25.1916 6.10539 25.1293 6.06346 25.0548C6.02154 24.9804 5.99951 24.8964 5.99951 24.8109C5.99951 24.7255 6.02154 24.6415 6.06346 24.5671C6.10539 24.4926 6.1658 24.4302 6.23886 24.3859C7.34386 23.6849 8.40586 22.2189 8.40586 20.2649V15.5899C8.40586 12.9559 9.12786 12.1899 11.4429 12.1899H32.2409C34.5569 12.1899 35.2789 12.9559 35.2789 15.5899V20.2629C35.2789 22.2169 36.3409 23.6829 37.4449 24.3829C37.7649 24.5959 37.7649 25.0429 37.4449 25.2329C36.3829 25.8489 35.2789 27.1449 35.2789 29.4179V34.1759L35.2779 34.1769ZM15.8199 31.0549C17.4979 32.5199 19.3039 33.2639 21.7899 33.2639C25.6979 33.2639 28.2469 31.3099 28.2469 28.1439C28.2469 24.7919 25.2109 23.9369 22.7419 23.2419C21.0489 22.7649 19.6219 22.3619 19.6219 21.2819C19.6219 20.5819 20.3659 19.9019 21.6189 19.9019C22.8299 19.9019 23.8289 20.1579 24.7839 20.6459C25.1039 20.7949 25.3999 20.9009 25.6759 20.9009C26.0799 20.9009 26.3989 20.7099 26.6759 20.3279L27.0569 19.7539C27.2069 19.5419 27.2699 19.3079 27.2699 19.0539C27.2699 18.6279 27.0569 18.2039 26.7399 17.9909C25.4639 17.1839 23.7429 16.5039 21.4069 16.5039C18.0929 16.5039 15.5439 18.2459 15.5439 21.3679C15.5439 24.8579 18.6459 25.7449 21.1299 26.4529C22.7869 26.9259 24.1679 27.3199 24.1679 28.3569C24.1679 29.3549 23.2339 29.8439 22.0649 29.8439C20.6612 29.8573 19.2856 29.4505 18.1149 28.6759C17.7529 28.4419 17.4129 28.2929 17.0519 28.2929C16.7329 28.2929 16.4569 28.4419 16.2019 28.7609L15.6919 29.4189C15.5019 29.6319 15.4379 29.9079 15.4379 30.1629C15.4379 30.4809 15.5439 30.7999 15.8199 31.0549ZM47.5559 29.0999C47.2799 29.0999 47.0459 29.2069 46.8339 29.4829L46.4089 30.0779C46.2389 30.2679 46.1959 30.5019 46.1959 30.7149C46.1959 30.9909 46.3019 31.2669 46.5359 31.4799C47.9379 32.6899 49.4679 33.3279 51.5709 33.3279C54.8629 33.3279 57.0309 31.6709 57.0309 29.0149C57.0309 26.1909 54.4619 25.4699 52.3759 24.8839C50.9469 24.4819 49.7439 24.1439 49.7439 23.2379C49.7439 22.6219 50.3809 22.0679 51.4219 22.0679C52.3453 22.065 53.2559 22.2842 54.0769 22.7069L54.1409 22.7309C54.3929 22.8289 54.6259 22.9189 54.8409 22.9189C55.1609 22.9189 55.4369 22.7689 55.6709 22.4289L56.0109 21.9419C56.1256 21.7572 56.1846 21.5434 56.1809 21.3259C56.1809 20.9649 56.0109 20.6039 55.7339 20.4339C54.6509 19.7109 53.2059 19.1589 51.2309 19.1589C48.4479 19.1589 46.2809 20.6459 46.2809 23.2789C46.2809 26.2069 48.8959 26.9539 50.9929 27.5519C52.3959 27.9519 53.5669 28.2869 53.5669 29.1639C53.5669 30.0339 52.7809 30.4389 51.7829 30.4389C50.4869 30.4389 49.4029 30.0779 48.4479 29.4389C48.1719 29.2279 47.8319 29.0999 47.5559 29.0999ZM67.8419 31.3949C67.8453 31.2137 67.7933 31.0358 67.6929 30.8849L67.4169 30.4389C67.1619 29.9929 66.8649 29.8229 66.4819 29.8229C66.2919 29.8229 66.0789 29.8649 65.8019 29.9709C65.5269 30.0779 65.2079 30.1199 64.8469 30.1199C63.7209 30.1199 63.2319 29.1429 63.2319 27.6769V22.7499H66.4819C67.0979 22.7499 67.6079 22.2399 67.6079 21.6239V20.6039C67.6079 19.9889 67.0979 19.4789 66.4819 19.4789H63.2319V16.8449C63.2319 16.2289 62.7219 15.7189 62.1069 15.7189H60.8969C60.2799 15.7189 59.7699 16.2289 59.7699 16.8449V27.8049C59.7699 31.2679 60.9169 33.2439 63.9549 33.2439C65.2929 33.2439 66.3129 32.9679 67.3319 32.3509C67.6719 32.1809 67.8419 31.7769 67.8419 31.3949ZM74.7239 24.6399C71.9839 24.6399 69.7959 26.0419 69.7959 29.0149C69.7959 31.6279 71.5589 33.1579 73.9599 33.1789C75.7859 33.1789 77.2299 32.4779 77.9529 31.4589V31.9039C77.9529 32.5199 78.4629 33.0299 79.0789 33.0299H79.8649C80.4809 33.0299 80.9909 32.5199 80.9909 31.9039V24.8099C80.9909 21.2419 79.6109 19.2029 75.6169 19.2029C74.2369 19.2029 72.8969 19.5629 71.7289 20.0949C71.3689 20.2649 71.0919 20.6679 71.0919 21.0509C71.097 21.1733 71.1248 21.2937 71.1739 21.4059C71.1899 21.4509 71.2069 21.4959 71.2189 21.5389L71.3889 21.8989C71.6019 22.3249 71.9629 22.5379 72.4089 22.5379C72.5429 22.5379 72.6899 22.4979 72.8299 22.4599L72.9399 22.4299C73.5769 22.2189 74.2359 22.0699 75.2549 22.0699C77.1249 22.0699 77.7619 23.1319 77.7619 25.1079V25.5119C77.1029 25.0219 75.9139 24.6409 74.7239 24.6409V24.6399ZM75.4039 26.9549C76.3809 26.9549 77.1459 27.1669 77.7619 27.6139H77.7829V29.0139C77.3579 29.5889 76.6149 30.2259 75.1699 30.2259C74.0659 30.2259 73.2369 29.6529 73.2369 28.6329C73.2369 27.4859 74.2569 26.9549 75.4039 26.9549ZM92.3139 31.3949C92.317 31.2136 92.2647 31.0357 92.1639 30.8849L91.8879 30.4389C91.6329 29.9929 91.3359 29.8229 90.9529 29.8229C90.7629 29.8229 90.5499 29.8649 90.2729 29.9709C89.9969 30.0779 89.6789 30.1199 89.3179 30.1199C88.1919 30.1199 87.7029 29.1429 87.7029 27.6769V22.7499H90.9529C91.5689 22.7499 92.0789 22.2399 92.0789 21.6239V20.6039C92.0789 19.9889 91.5689 19.4789 90.9529 19.4789H87.7029V16.8449C87.7029 16.2289 87.1929 15.7189 86.5769 15.7189H85.3669C84.7509 15.7189 84.2409 16.2289 84.2409 16.8449V27.8049C84.2409 31.2679 85.3879 33.2439 88.4249 33.2439C89.7649 33.2439 90.7829 32.9679 91.8029 32.3509C92.1429 32.1809 92.3139 31.7769 92.3139 31.3949ZM99.1949 24.6399C96.4549 24.6399 94.2669 26.0419 94.2669 29.0149C94.2669 31.6279 96.0509 33.1579 98.4299 33.1789C100.257 33.1789 101.702 32.4779 102.424 31.4589V31.9039C102.424 32.5199 102.934 33.0299 103.55 33.0299H104.336C104.952 33.0299 105.462 32.5199 105.462 31.9039V24.8099C105.462 21.2419 104.081 19.2029 100.087 19.2029C98.7069 19.2029 97.3679 19.5629 96.1999 20.0949C95.8399 20.2649 95.5629 20.6679 95.5629 21.0509C95.568 21.1733 95.5958 21.2937 95.6449 21.4059C95.6609 21.4509 95.6779 21.4959 95.6899 21.5389L95.8599 21.8989C96.0729 22.3249 96.4339 22.5379 96.8799 22.5379C97.0139 22.5379 97.1609 22.4979 97.2999 22.4599L97.4099 22.4299C98.0479 22.2189 98.7069 22.0699 99.7259 22.0699C101.596 22.0699 102.233 23.1319 102.233 25.1079V25.5119C101.574 25.0219 100.385 24.6409 99.1949 24.6409V24.6399ZM99.8749 26.9549C100.852 26.9549 101.617 27.1669 102.233 27.6139H102.254V29.0139C101.829 29.5889 101.086 30.2259 99.6409 30.2259C98.5369 30.2259 97.7079 29.6529 97.7079 28.6329C97.7079 27.4859 98.7279 26.9549 99.8749 26.9549ZM116.677 19.2449C115.02 19.2449 113.427 19.9029 112.471 20.9649H112.408V20.5819C112.408 19.9659 111.898 19.4559 111.282 19.4559H110.071C109.455 19.4559 108.945 19.9659 108.945 20.5819V31.8619C108.945 32.4779 109.455 32.9879 110.071 32.9879H111.282C111.898 32.9879 112.408 32.4779 112.408 31.8619V23.9169C113.024 23.0039 114.022 22.4729 115.233 22.4729C116.677 22.4729 117.463 23.3859 117.463 24.8099V31.8199C117.463 32.4349 117.973 32.9449 118.589 32.9449H119.8C120.416 32.9449 120.926 32.4349 120.926 31.8189V24.9999C120.926 24.8239 120.919 24.6039 120.914 24.4059C120.909 24.2439 120.904 24.0959 120.904 24.0009C121.372 23.0879 122.391 22.4509 123.687 22.4509C125.323 22.4509 126.003 23.3639 126.003 25.0409V31.8609C126.003 32.4769 126.512 32.9869 127.128 32.9869H128.339C128.955 32.9869 129.465 32.4769 129.465 31.8609V24.1709C129.465 20.4539 127.617 19.2429 125.153 19.2429C123.071 19.2429 121.563 20.1349 120.607 21.4099C120.119 20.1779 118.738 19.2429 116.677 19.2429V19.2449ZM135.285 16.7799C136.262 16.7799 137.261 15.9939 137.261 14.6129C137.261 13.4029 136.262 12.6169 135.285 12.6169C134.117 12.6169 133.119 13.4029 133.119 14.6129C133.119 15.9929 134.117 16.7799 135.285 16.7799ZM136.942 20.6039C136.942 19.9879 136.432 19.4779 135.816 19.4779V19.4559H134.606C133.99 19.4559 133.48 19.9659 133.48 20.5819V31.8619C133.48 32.4779 133.99 32.9879 134.606 32.9879H135.816C136.432 32.9879 136.942 32.4779 136.942 31.8619V20.6039ZM147.882 22.3879C148.753 22.3879 149.454 22.5369 150.261 22.9179C150.404 22.9979 150.559 23.0299 150.699 23.0579L150.834 23.0879C151.238 23.0879 151.62 22.8339 151.854 22.4519L152.3 21.6659C152.406 21.5159 152.428 21.3459 152.428 21.1759C152.428 20.7949 152.236 20.3489 151.897 20.1789C150.58 19.4559 149.263 19.1589 147.457 19.1589C143.336 19.1589 140.468 22.3029 140.468 26.2329C140.468 30.4809 143.421 33.3059 147.882 33.3059C149.56 33.3059 150.983 33.0089 152.598 31.7129C152.852 31.5219 153.001 31.1179 153.001 30.7569C153.001 30.5239 152.937 30.2899 152.789 30.1409L152.279 29.5039C152.166 29.3644 152.024 29.2518 151.862 29.1747C151.7 29.0975 151.523 29.0576 151.344 29.0579C151.111 29.0579 150.856 29.1429 150.622 29.2919C149.836 29.8019 149.071 30.0779 148.009 30.0779C145.97 30.0779 144.122 28.5909 144.122 26.2119C144.122 23.8539 145.949 22.3879 147.882 22.3879Z" fill="#898989"/>
</svg>
