<svg width="130" height="41" viewBox="0 0 130 41" fill="none" xmlns="http://www.w3.org/2000/svg">
<rect y="0.5" width="42" height="40" rx="5" fill="#959595"/>
<path d="M10.4126 29.6219V26.5011H14.5817C15.3294 26.5011 15.8902 26.3061 16.264 25.916C16.6378 25.5259 16.8248 24.9733 16.8248 24.2581C16.8248 23.5429 16.6378 22.9984 16.264 22.6246C15.8902 22.2345 15.3294 22.0394 14.5817 22.0394H10.4126V19.6257H14.3867C15.622 19.6257 16.7191 19.7801 17.6781 20.089C18.6371 20.3815 19.3929 20.861 19.9455 21.5274C20.4982 22.1938 20.7745 23.0959 20.7745 24.2337V24.575C20.7745 25.6316 20.5307 26.5418 20.0431 27.3057C19.5554 28.0534 18.8403 28.6304 17.8975 29.0368C16.9548 29.4269 15.7845 29.6219 14.3867 29.6219H10.4126ZM6.99924 29.6219V11.5556H10.9002V29.6219H6.99924ZM10.4126 21.4055V19.0162H13.9234C14.6874 19.0162 15.24 18.8211 15.5813 18.431C15.9227 18.041 16.0933 17.5208 16.0933 16.8707C16.0933 16.188 15.9227 15.6516 15.5813 15.2615C15.24 14.8714 14.6874 14.6764 13.9234 14.6764H10.4126V11.5556H13.6796C15.7276 11.5556 17.2961 11.9863 18.3851 12.8478C19.4904 13.7093 20.0431 14.9364 20.0431 16.5293V16.895C20.0431 18.0003 19.7586 18.8862 19.1897 19.5526C18.6371 20.219 17.8813 20.6985 16.9223 20.991C15.9796 21.2674 14.8987 21.4055 13.6796 21.4055H10.4126ZM29.7832 29.9632C28.6455 29.9632 27.6377 29.7682 26.76 29.3781C25.8985 28.988 25.1752 28.4679 24.5901 27.8177C24.0212 27.1513 23.5824 26.4117 23.2735 25.599C22.981 24.7701 22.8347 23.9249 22.8347 23.0634V22.5758C22.8347 21.6818 22.981 20.8285 23.2735 20.0158C23.5824 19.1869 24.0212 18.4473 24.5901 17.7971C25.159 17.147 25.866 16.635 26.7112 16.2611C27.5727 15.871 28.5479 15.676 29.637 15.676C31.0673 15.676 32.2701 16.0011 33.2453 16.6512C34.2368 17.2851 34.9926 18.1222 35.5128 19.1625C36.0329 20.1865 36.293 21.308 36.293 22.527V23.8436H24.4682V21.625H33.928L32.6602 22.649C32.6602 21.8525 32.5464 21.1698 32.3189 20.601C32.0913 20.0321 31.75 19.6013 31.2949 19.3088C30.856 18.9999 30.3034 18.8455 29.637 18.8455C28.9543 18.8455 28.3773 18.9999 27.9059 19.3088C27.4345 19.6176 27.077 20.0727 26.8331 20.6741C26.5893 21.2592 26.4674 21.9825 26.4674 22.844C26.4674 23.6404 26.5812 24.3394 26.8088 24.9408C27.0363 25.5259 27.3939 25.981 27.8815 26.3061C28.3691 26.6312 29.003 26.7937 29.7832 26.7937C30.4984 26.7937 31.0836 26.6556 31.5387 26.3792C31.9938 26.1029 32.3026 25.7616 32.4651 25.3552H36.0491C35.8541 26.2492 35.4721 27.0457 34.9032 27.7446C34.3344 28.4435 33.6192 28.988 32.7577 29.3781C31.8963 29.7682 30.9048 29.9632 29.7832 29.9632Z" fill="white"/>
<path d="M60.507 29.5V11.7019H64.5055V29.5H60.507ZM48.9992 29.5V11.7019H52.9977V29.5H48.9992ZM52.2907 22.3076V18.7968H61.2141V22.3076H52.2907ZM76.4718 29.5V25.5503H75.8135V21.2592C75.8135 20.5766 75.651 20.0646 75.3259 19.7232C75.0008 19.3819 74.4807 19.2112 73.7655 19.2112C73.4079 19.2112 72.9366 19.2194 72.3514 19.2356C71.7663 19.2519 71.1649 19.2763 70.5472 19.3088C69.9296 19.3413 69.3688 19.3738 68.865 19.4063V16.1149C69.2388 16.0823 69.6777 16.0498 70.1815 16.0173C70.6854 15.9848 71.2055 15.9604 71.7419 15.9442C72.2783 15.9279 72.7822 15.9198 73.2535 15.9198C74.6189 15.9198 75.7648 16.1149 76.6912 16.5049C77.634 16.895 78.3491 17.4883 78.8368 18.2848C79.3244 19.065 79.5682 20.0727 79.5682 21.308V29.5H76.4718ZM72.2051 29.8413C71.2462 29.8413 70.401 29.6707 69.6695 29.3293C68.9544 28.988 68.3936 28.5004 67.9872 27.8665C67.5809 27.2163 67.3777 26.4443 67.3777 25.5503C67.3777 24.575 67.6297 23.7786 68.1335 23.161C68.6374 22.527 69.3444 22.0638 70.2547 21.7712C71.1649 21.4624 72.2133 21.308 73.3998 21.308H76.2524V23.4779H73.3754C72.6928 23.4779 72.1645 23.6486 71.7907 23.9899C71.4331 24.315 71.2543 24.762 71.2543 25.3309C71.2543 25.8672 71.4331 26.3061 71.7907 26.6474C72.1645 26.9725 72.6928 27.135 73.3754 27.135C73.8143 27.135 74.2044 27.0619 74.5457 26.9156C74.9033 26.7531 75.1959 26.4849 75.4234 26.111C75.651 25.7372 75.781 25.2171 75.8135 24.5507L76.74 25.5259C76.6587 26.4524 76.4312 27.2326 76.0573 27.8665C75.6997 28.5004 75.1959 28.988 74.5457 29.3293C73.9118 29.6707 73.1316 29.8413 72.2051 29.8413ZM82.9998 34.3762V16.1392H86.0962V21.9175L85.6817 21.8931C85.7467 20.5603 86.023 19.4388 86.5107 18.5286C86.9983 17.6021 87.6566 16.9113 88.4855 16.4562C89.3145 15.9848 90.2491 15.7491 91.2893 15.7491C92.2158 15.7491 93.0529 15.9198 93.8006 16.2611C94.5645 16.6025 95.2147 17.082 95.7511 17.6996C96.3037 18.301 96.7182 19.0162 96.9945 19.8451C97.2871 20.6578 97.4333 21.5518 97.4333 22.527V23.0878C97.4333 24.0468 97.2952 24.9489 97.0189 25.7941C96.7425 26.623 96.3362 27.3463 95.7998 27.964C95.2797 28.5817 94.6377 29.0693 93.8737 29.4269C93.126 29.7682 92.2646 29.9389 91.2893 29.9389C90.2816 29.9389 89.3714 29.7357 88.5587 29.3293C87.7622 28.9067 87.1202 28.2728 86.6326 27.4276C86.145 26.5662 85.8768 25.4771 85.828 24.1606L86.9008 25.6234V34.3762H82.9998ZM90.1922 26.6718C90.8586 26.6718 91.4356 26.5093 91.9232 26.1842C92.4271 25.8591 92.8172 25.404 93.0935 24.8189C93.3698 24.2337 93.508 23.5592 93.508 22.7952C93.508 22.0313 93.3698 21.3649 93.0935 20.796C92.8172 20.2271 92.4352 19.7883 91.9476 19.4794C91.46 19.1543 90.8749 18.9918 90.1922 18.9918C89.6071 18.9918 89.0544 19.13 88.5343 19.4063C88.0142 19.6826 87.5916 20.0808 87.2665 20.601C86.9577 21.1048 86.8032 21.7225 86.8032 22.4539V23.356C86.8032 24.0549 86.9658 24.6563 87.2909 25.1602C87.6322 25.6478 88.0629 26.0217 88.583 26.2817C89.1032 26.5418 89.6396 26.6718 90.1922 26.6718ZM100.265 34.3762V16.1392H103.361V21.9175L102.946 21.8931C103.011 20.5603 103.288 19.4388 103.775 18.5286C104.263 17.6021 104.921 16.9113 105.75 16.4562C106.579 15.9848 107.514 15.7491 108.554 15.7491C109.481 15.7491 110.318 15.9198 111.065 16.2611C111.829 16.6025 112.479 17.082 113.016 17.6996C113.568 18.301 113.983 19.0162 114.259 19.8451C114.552 20.6578 114.698 21.5518 114.698 22.527V23.0878C114.698 24.0468 114.56 24.9489 114.284 25.7941C114.007 26.623 113.601 27.3463 113.065 27.964C112.544 28.5817 111.902 29.0693 111.138 29.4269C110.391 29.7682 109.529 29.9389 108.554 29.9389C107.546 29.9389 106.636 29.7357 105.823 29.3293C105.027 28.9067 104.385 28.2728 103.897 27.4276C103.41 26.5662 103.142 25.4771 103.093 24.1606L104.166 25.6234V34.3762H100.265ZM107.457 26.6718C108.123 26.6718 108.7 26.5093 109.188 26.1842C109.692 25.8591 110.082 25.404 110.358 24.8189C110.635 24.2337 110.773 23.5592 110.773 22.7952C110.773 22.0313 110.635 21.3649 110.358 20.796C110.082 20.2271 109.7 19.7883 109.212 19.4794C108.725 19.1543 108.14 18.9918 107.457 18.9918C106.872 18.9918 106.319 19.13 105.799 19.4063C105.279 19.6826 104.856 20.0808 104.531 20.601C104.222 21.1048 104.068 21.7225 104.068 22.4539V23.356C104.068 24.0549 104.231 24.6563 104.556 25.1602C104.897 25.6478 105.328 26.0217 105.848 26.2817C106.368 26.5418 106.904 26.6718 107.457 26.6718ZM117.074 34.7907V31.4749H119.853C120.276 31.4749 120.633 31.418 120.926 31.3042C121.218 31.2067 121.454 31.036 121.633 30.7922C121.812 30.5484 121.958 30.2152 122.072 29.7926L125.363 16.1392H129.069L125.339 30.5728C125.079 31.613 124.713 32.442 124.242 33.0596C123.786 33.6773 123.169 34.1161 122.389 34.3762C121.625 34.6525 120.649 34.7907 119.463 34.7907H117.074ZM121.267 29.2074V26.1598H124.095V29.2074H121.267ZM119.658 29.2074L115.562 16.1392H119.487L123.364 29.2074H119.658Z" fill="#959595"/>
</svg>
