<svg width="104" height="49" viewBox="0 0 104 49" fill="none" xmlns="http://www.w3.org/2000/svg">
<g clip-path="url(#clip0_5_597)">
<path fill-rule="evenodd" clip-rule="evenodd" d="M36.837 4.5H4.727C2.117 4.5 0 6.607 0 9.206V39.47C0 42.07 2.116 44.176 4.727 44.176H36.837C39.448 44.176 41.565 42.069 41.565 39.47V9.206C41.565 6.606 39.448 4.5 36.837 4.5ZM9.48 17.949H13.122C15.207 17.949 16.514 19.139 16.514 21.035C16.514 22.958 15.277 24.093 13.164 24.093H9.479L9.48 17.949ZM9.48 27.303H12.914L16.654 34.541H21.407L17.181 26.653C19.489 25.74 20.823 23.525 20.823 20.979C20.823 17.008 18.113 14.572 13.706 14.572H5.281V34.541H9.48V27.303ZM32.548 25.311C32.465 23.291 31.242 22.031 29.351 22.031C27.474 22.031 26.154 23.331 26.015 25.311H32.548ZM29.504 31.773C31.103 31.773 32.201 31.206 32.632 30.195H36.399C35.787 33.074 33.146 34.873 29.393 34.873C24.723 34.873 21.97 31.939 21.97 26.985C21.97 22.017 24.778 18.945 29.337 18.945C33.855 18.945 36.524 21.81 36.524 26.653V27.884H26V28.092C26.055 30.362 27.39 31.772 29.503 31.772L29.504 31.773ZM45.694 34.54H49.739V22.598H52.909V19.43H49.656V18.17C49.656 16.87 50.24 16.247 51.824 16.247C52.353 16.247 52.77 16.288 53.034 16.316V13.466C52.3444 13.3579 51.647 13.3068 50.949 13.313C47.251 13.313 45.694 14.849 45.694 17.879V19.429H43.22V22.599H45.694V34.54ZM68.527 26.902C68.527 31.898 65.691 34.872 60.979 34.872C56.267 34.872 53.431 31.898 53.431 26.902C53.431 21.962 56.308 18.945 60.979 18.945C65.649 18.945 68.527 21.948 68.527 26.902ZM57.587 26.902C57.587 29.877 58.81 31.579 60.979 31.579C63.133 31.579 64.371 29.863 64.371 26.902C64.371 23.968 63.12 22.239 60.979 22.239C58.824 22.239 57.587 23.969 57.587 26.902ZM70.407 34.541H74.452V26.086C74.452 23.941 75.968 22.64 78.178 22.64C78.831 22.64 79.776 22.765 80.096 22.89V19.222C79.749 19.097 79.067 19.028 78.511 19.028C76.565 19.028 74.981 20.191 74.577 21.713H74.327V19.277H70.407V34.541ZM85.57 34.541H81.524V19.277H85.444V21.768H85.694C86.32 20.025 87.919 18.945 89.934 18.945C92.089 18.945 93.563 19.997 94.174 21.768H94.424C95.134 20.066 96.899 18.945 99.039 18.945C102.098 18.945 104.002 20.925 104.002 24.065V34.541H99.957V25.131C99.957 23.318 99.109 22.419 97.399 22.419C95.759 22.419 94.702 23.581 94.702 25.2V34.54H90.81V24.965C90.81 23.345 89.865 22.419 88.28 22.419C86.696 22.419 85.57 23.65 85.57 25.352V34.541Z" fill="#898989"/>
</g>
<defs>
<clipPath id="clip0_5_597">
<rect width="104" height="48" fill="white" transform="translate(0 0.5)"/>
</clipPath>
</defs>
</svg>
