<svg width="32" height="31" viewBox="0 0 32 31" fill="none" xmlns="http://www.w3.org/2000/svg">
<path d="M16.25 29.0625C13.5676 29.0625 10.9454 28.2671 8.71508 26.7768C6.48474 25.2865 4.7464 23.1684 3.71989 20.6902C2.69338 18.2119 2.42479 15.485 2.94811 12.8541C3.47142 10.2232 4.76312 7.80662 6.65987 5.90987C8.55662 4.01312 10.9732 2.72142 13.6041 2.19811C16.235 1.67479 18.9619 1.94338 21.4402 2.96989C23.9184 3.9964 26.0365 5.73474 27.5268 7.96508C29.0171 10.1954 29.8125 12.8176 29.8125 15.5C29.8125 19.097 28.3836 22.5467 25.8401 25.0901C23.2967 27.6336 19.847 29.0625 16.25 29.0625ZM16.25 3.87501C13.9508 3.87501 11.7032 4.5568 9.7915 5.83417C7.87978 7.11154 6.38978 8.92712 5.50991 11.0513C4.63004 13.1755 4.39982 15.5129 4.84838 17.7679C5.29693 20.023 6.4041 22.0943 8.02989 23.7201C9.65567 25.3459 11.7271 26.4531 13.9821 26.9016C16.2371 27.3502 18.5745 27.12 20.6987 26.2401C22.8229 25.3602 24.6385 23.8702 25.9158 21.9585C27.1932 20.0468 27.875 17.7992 27.875 15.5C27.875 12.4169 26.6502 9.46 24.4701 7.27989C22.29 5.09978 19.3331 3.87501 16.25 3.87501Z" fill="white"/>
<path d="M20.6966 21.3125L15.2812 15.8972V6.78125H17.2188V15.0931L22.0625 19.9466L20.6966 21.3125Z" fill="white"/>
</svg>
