<svg width="31" height="30" viewBox="0 0 31 30" fill="none" xmlns="http://www.w3.org/2000/svg">
<path d="M13.875 15.5531L11.4469 13.125L10.125 14.4469L13.875 18.1969L21.375 10.6969L20.0531 9.375L13.875 15.5531Z" fill="white"/>
<path d="M15.75 28.125L9.96001 25.0378C8.30938 24.1597 6.92904 22.8486 5.96712 21.2454C5.0052 19.6421 4.49802 17.8072 4.50001 15.9375V3.75C4.5005 3.25287 4.69821 2.77625 5.04973 2.42472C5.40125 2.0732 5.87788 1.8755 6.37501 1.875H25.125C25.6221 1.8755 26.0988 2.0732 26.4503 2.42472C26.8018 2.77625 26.9995 3.25287 27 3.75V15.9375C27.002 17.8072 26.4948 19.6421 25.5329 21.2454C24.571 22.8486 23.1906 24.1597 21.54 25.0378L15.75 28.125ZM6.37501 3.75V15.9375C6.37345 17.4673 6.78854 18.9687 7.57572 20.2804C8.3629 21.5922 9.49245 22.6648 10.8431 23.3831L15.75 25.9997L20.6569 23.3841C22.0077 22.6656 23.1373 21.5929 23.9245 20.281C24.7117 18.969 25.1267 17.4675 25.125 15.9375V3.75H6.37501Z" fill="white"/>
</svg>
