<svg width="31" height="30" viewBox="0 0 31 30" fill="none" xmlns="http://www.w3.org/2000/svg">
<path d="M8.5625 21.25L12.625 15L11.9838 15.9688C11.5571 16.6146 11.0937 17.3283 10.5937 18.11C10.0937 18.8917 9.63042 19.6104 9.20375 20.2662L8.5625 21.25ZM4 23.75L9.625 15L4 6.25H20.3125L26.0938 14.4062C25.5312 14.1771 24.9529 14.005 24.3588 13.89C23.7646 13.775 23.1658 13.7283 22.5625 13.75L19 8.75H8.5625L12.625 15L8.5625 21.25H14.0938C14.0312 21.6667 14 22.0833 14 22.5C14 22.9167 14.0312 23.3333 14.0938 23.75H4ZM21.8438 25.3125L26.1875 21L24.875 19.6875L21.8438 22.6562L20.625 21.4375L19.3125 22.7812L21.8438 25.3125ZM22.75 28.75C21.0208 28.75 19.5471 28.1404 18.3288 26.9213C17.1104 25.7021 16.5008 24.2283 16.5 22.5C16.5 20.7708 17.1096 19.2971 18.3288 18.0788C19.5479 16.8604 21.0217 16.2508 22.75 16.25C24.4792 16.25 25.9533 16.8596 27.1725 18.0788C28.3917 19.2979 29.0008 20.7717 29 22.5C29 24.2292 28.3904 25.7033 27.1713 26.9225C25.9521 28.1417 24.4783 28.7508 22.75 28.75Z" fill="white"/>
</svg>
