<svg width="1028" height="49" viewBox="0 0 1028 49" fill="none" xmlns="http://www.w3.org/2000/svg">
<path d="M55.4202 18.6781V16.1871H66.3762V18.6781H62.3002V32.5531H59.4662V18.6781H55.4202ZM73.5172 23.2551C73.0781 23.1771 72.6331 23.1383 72.1872 23.1391C70.3672 23.1391 69.2972 24.3271 69.2972 26.7311V32.5241H66.6072V21.0541H69.2382V22.6761H69.2962C69.8162 21.6911 70.9732 20.6761 72.5062 20.6761C72.9392 20.6761 73.2282 20.7061 73.5172 20.7351V23.2551ZM86.3832 32.5241H83.7812V31.0761H83.7232C82.9432 32.0611 81.6992 32.9591 79.7912 32.9591C77.2182 32.9591 74.2982 30.9021 74.2982 26.7891C74.2982 23.1391 76.8712 20.7061 79.9932 20.7061C81.9012 20.7061 83.0582 21.7191 83.7532 22.6171H83.8102V21.0531H86.4122V32.5241H86.3832ZM80.4852 30.5841C82.2482 30.5841 83.8962 29.0481 83.8962 26.8461C83.8962 24.5291 82.3932 22.9941 80.5142 22.9941C78.1442 22.9941 77.0152 24.9061 77.0152 26.7891C77.0152 28.7001 78.1152 30.5841 80.4852 30.5841ZM89.5062 21.0531H92.1662V22.5021H92.2232C93.1192 21.1981 94.4492 20.6771 95.7212 20.6771C98.0922 20.6771 100.174 22.2411 100.174 25.9201V32.5241H97.4842V26.0641C97.4842 24.0941 96.5602 23.0521 95.0272 23.0521C93.3502 23.0521 92.1942 24.2401 92.1942 26.4701V32.5531H89.5052L89.5062 21.0531ZM108.298 24.0081C108.182 23.1681 107.546 22.6181 106.765 22.6181C105.84 22.6181 105.32 23.1971 105.32 23.8341C105.32 24.5291 105.667 25.0221 107.661 25.6881C110.119 26.4701 110.986 27.7451 110.986 29.3671C110.986 31.4811 109.396 32.9591 106.765 32.9591C104.019 32.9591 102.66 31.4521 102.457 29.3091H104.944C105.059 30.2651 105.638 30.9891 106.823 30.9891C107.835 30.9891 108.413 30.3521 108.413 29.5691C108.413 28.7011 107.922 28.1501 106.014 27.5131C103.874 26.8181 102.775 25.7461 102.775 23.9501C102.775 22.0671 104.25 20.6771 106.678 20.6771C109.136 20.6771 110.437 22.1251 110.726 24.0071L108.298 24.0081ZM113.328 15.7811H116.306V18.5041H113.328V15.7811ZM113.473 21.0531H116.161V32.5531H113.473V21.0531ZM124.459 24.0081C124.343 23.1681 123.707 22.6181 122.926 22.6181C122.001 22.6181 121.481 23.1971 121.481 23.8341C121.481 24.5291 121.828 25.0221 123.823 25.6881C126.28 26.4701 127.147 27.7451 127.147 29.3671C127.147 31.4811 125.557 32.9591 122.926 32.9591C120.18 32.9591 118.821 31.4521 118.619 29.3091H121.105C121.221 30.2651 121.799 30.9891 122.984 30.9891C123.996 30.9891 124.574 30.3521 124.574 29.5691C124.574 28.7011 124.083 28.1501 122.175 27.5131C120.035 26.8181 118.937 25.7461 118.937 23.9501C118.937 22.0671 120.411 20.6771 122.84 20.6771C125.297 20.6771 126.598 22.1251 126.887 24.0071L124.459 24.0081ZM128.304 21.0531H129.749V17.3751H132.438V21.0531H135.3V23.3131H132.409V28.4401C132.409 30.0041 132.901 30.4391 133.999 30.4391C134.462 30.4391 134.982 30.3521 135.387 30.2361V32.4081C134.78 32.5821 134.028 32.6691 133.363 32.6691C130.501 32.6691 129.749 30.9311 129.749 28.5851V23.3131H128.304V21.0531ZM142.615 20.6771C146.2 20.6771 148.744 23.3131 148.744 26.7891C148.744 30.1781 146.171 32.9591 142.615 32.9591C139.117 32.9591 136.486 30.2651 136.486 26.7891C136.486 23.2261 139.146 20.6771 142.615 20.6771ZM142.615 30.5541C144.639 30.5541 146.026 28.9321 146.026 26.7891C146.026 24.7611 144.725 23.0521 142.615 23.0521C140.562 23.0521 139.203 24.6451 139.203 26.7891C139.203 28.9901 140.765 30.5541 142.615 30.5541ZM156.667 23.1391C154.845 23.1391 153.776 24.3271 153.776 26.7311V32.5241H151.087V21.0541H153.718V22.6761H153.776C154.296 21.6911 155.452 20.6761 156.985 20.6761C157.418 20.6761 157.707 20.7061 157.997 20.7351V23.2551C157.558 23.1771 157.113 23.1382 156.667 23.1391ZM20.8122 38.2311C20.4439 38.2305 20.0908 38.0839 19.8306 37.8232C19.5703 37.5626 19.4242 37.2094 19.4242 36.8411V11.8701C19.4246 11.5958 19.5063 11.3278 19.6588 11.0999C19.8113 10.872 20.0279 10.6943 20.2813 10.5893C20.5346 10.4842 20.8134 10.4566 21.0825 10.5098C21.3515 10.5629 21.5988 10.6946 21.7932 10.8881C22.0532 11.1481 22.1992 11.5021 22.1992 11.8701V36.8401C22.1992 37.5931 21.5632 38.2311 20.8122 38.2311ZM15.0302 25.7471H8.38016C8.01203 25.7463 7.65925 25.5995 7.39922 25.3389C7.1392 25.0783 6.99316 24.7252 6.99316 24.3571C6.99316 23.5741 7.60016 22.9661 8.38116 22.9661H15.0312C15.3998 22.9661 15.7534 23.1125 16.014 23.3732C16.2747 23.6339 16.4212 23.9874 16.4212 24.3561C16.4212 24.7247 16.2747 25.0783 16.014 25.3389C15.7534 25.5996 15.3998 25.7461 15.0312 25.7461L15.0302 25.7471ZM33.2732 25.7471H26.5952C26.2269 25.7465 25.8738 25.5999 25.6136 25.3392C25.3533 25.0786 25.2072 24.7254 25.2072 24.3571C25.2072 23.5741 25.8142 22.9661 26.5952 22.9661H33.2452C33.6133 22.9669 33.9661 23.1137 34.2261 23.3742C34.4861 23.6348 34.6322 23.9879 34.6322 24.3561C34.6322 25.1381 34.0252 25.7471 33.2732 25.7471Z" fill="#898989"/>
<path d="M20.816 45.212C9.338 45.212 0 35.856 0 24.356C0 12.856 9.338 3.5 20.816 3.5C32.294 3.5 41.632 12.856 41.632 24.356C41.632 35.856 32.294 45.212 20.816 45.212ZM20.816 6.281C10.871 6.281 2.776 14.391 2.776 24.356C2.776 34.321 10.871 42.431 20.816 42.431C30.762 42.431 38.856 34.321 38.856 24.356C38.856 14.391 30.762 6.281 20.816 6.281Z" fill="#898989"/>
<path fill-rule="evenodd" clip-rule="evenodd" d="M276 4.5L258 10.5V30L264 32V37.5L282 43.5V12L276 14V4.5ZM266 32.667L276 36V16.108L280 14.775V40.725L266 36.06V32.667Z" fill="#898989"/>
<path d="M300.9 20.9501V31.5001H305.347V20.9501H308.877V17.5581H297.39V20.9511L300.9 20.9501ZM311.106 25.7481C311.106 29.7261 313.406 31.7541 317.482 31.7541C321.382 31.7541 323.878 29.9011 323.878 25.7091V17.5591H319.432V25.5531C319.432 27.3861 319.042 28.2831 317.482 28.2831C315.902 28.2831 315.512 27.3861 315.512 25.5731V17.5581H311.106V25.7481Z" fill="#898989"/>
<path fill-rule="evenodd" clip-rule="evenodd" d="M326.969 31.5001V17.5581H332.527C336.544 17.5581 338.26 19.3521 338.26 22.3351V22.4131C338.26 25.3191 336.33 26.9571 332.722 26.9571H331.376V31.5001H326.969ZM332.292 23.9931H331.376V20.8531H332.312C333.462 20.8531 334.067 21.2831 334.067 22.3551V22.4331C334.067 23.4661 333.462 23.9931 332.292 23.9931Z" fill="#898989"/>
<path d="M340.562 31.5001V17.5581H344.989V28.0881H350.059V31.5001H340.562ZM352.561 17.5581V31.5001H362.779V28.1071H356.968V26.0211H361.336V22.9211H356.968V20.9511H362.467V17.5581H352.561Z" fill="#898989"/>
<path fill-rule="evenodd" clip-rule="evenodd" d="M486.005 7.29883C499.847 4.86883 503.835 7.54282 506.295 21.4588C508.758 35.3718 506.253 39.1888 492.089 41.6778C477.924 44.1648 474.262 41.4378 471.799 27.5198C469.335 13.5998 472.164 9.73183 486.005 7.29883ZM487.6 13.4468C484.95 13.9128 483.034 15.1248 481.932 16.8868C481.067 18.2708 480.791 19.8918 481.041 21.2048C481.593 24.0998 483.991 25.9218 488.85 26.2898L489.23 26.3168L489.607 26.3468L489.965 26.3808C491.659 26.5498 492.743 26.8368 493.341 27.2058C493.741 27.4508 493.901 27.7188 494.015 28.3678C494.233 29.5998 493.27 30.7158 490.735 31.1608C489.058 31.4558 487.268 31.1008 485.312 30.0378C484.819 29.7702 484.24 29.7087 483.702 29.8666C483.163 30.0246 482.709 30.3892 482.439 30.8808C482.306 31.1241 482.222 31.3913 482.192 31.6671C482.163 31.9429 482.188 32.2219 482.266 32.4879C482.345 32.7539 482.476 33.0018 482.65 33.2171C482.825 33.4325 483.041 33.6112 483.285 33.7428C486.045 35.2428 488.794 35.7868 491.471 35.3168C496.144 34.4958 498.846 31.3678 498.186 27.6348C497.558 24.0908 495.05 22.5088 489.515 22.1068L489.15 22.0808C487.368 21.9448 486.252 21.5998 485.663 21.1608C485.372 20.9428 485.264 20.7508 485.2 20.4188C485.145 20.1228 485.237 19.5798 485.525 19.1188C485.968 18.4128 486.83 17.8668 488.336 17.6028C489.671 17.3678 490.961 17.5928 492.283 18.3088C492.589 18.4741 492.93 18.5618 493.278 18.5641C493.625 18.5664 493.968 18.4834 494.276 18.3222C494.584 18.161 494.847 17.9267 495.043 17.6398C495.239 17.3529 495.362 17.0222 495.4 16.6768C495.444 16.2614 495.364 15.8422 495.169 15.4726C494.974 15.1031 494.674 14.7999 494.306 14.6018C492.157 13.4378 489.896 13.0428 487.6 13.4468Z" fill="#898989"/>
<path d="M521.792 31.8398C524.946 31.8398 527.156 30.1858 527.156 27.4048V27.3628C527.156 24.8998 525.526 23.7748 522.349 23.0118C519.452 22.3328 518.766 21.8228 518.766 20.6768V20.6338C518.766 19.6588 519.666 18.8738 521.213 18.8738C522.393 18.8738 523.508 19.2558 524.667 19.9988C524.882 20.1258 525.097 20.1898 525.354 20.1898C526.04 20.1898 526.598 19.6588 526.598 18.9798C526.598 18.4698 526.319 18.1088 526.018 17.9388C524.668 17.0478 523.143 16.5588 521.254 16.5588C518.273 16.5588 516.127 18.3208 516.127 20.8688V20.9108C516.127 23.6478 517.929 24.5818 521.127 25.3468C523.915 25.9828 524.516 26.5568 524.516 27.6168V27.6598C524.516 28.7618 523.486 29.5268 521.856 29.5268C520.225 29.5268 518.895 28.9768 517.65 27.9998C517.479 27.8728 517.243 27.7658 516.878 27.7658C516.192 27.7658 515.633 28.2958 515.633 28.9758C515.633 29.3998 515.847 29.7618 516.149 29.9728C517.779 31.1879 519.759 31.8429 521.792 31.8398ZM533.19 31.8628C534.928 31.8628 536.108 31.1408 536.88 30.2278V30.6518C536.88 31.2258 537.396 31.7348 538.147 31.7348C538.855 31.7348 539.412 31.2038 539.412 30.5038V24.9858C539.412 23.5208 539.026 22.3328 538.19 21.5258C537.396 20.7198 536.13 20.2738 534.435 20.2738C532.955 20.2738 531.86 20.5288 530.787 20.9328C530.582 21.0144 530.406 21.1545 530.28 21.3354C530.154 21.5164 530.084 21.7304 530.079 21.9508C530.079 22.5448 530.572 23.0108 531.174 23.0108C531.311 23.0089 531.448 22.9877 531.58 22.9478C532.288 22.6718 533.105 22.5028 534.091 22.5028C535.915 22.5028 536.903 23.3508 536.903 24.9438V25.2188C535.918 24.8992 534.889 24.7414 533.854 24.7518C531.088 24.7518 529.178 25.9408 529.178 28.3598V28.4028C529.178 30.6528 531.066 31.8628 533.19 31.8628ZM533.92 29.9958C532.674 29.9958 531.71 29.3788 531.71 28.2958V28.2538C531.71 27.0858 532.696 26.3868 534.37 26.3868C535.4 26.3868 536.28 26.5768 536.944 26.8318V27.5968C536.944 29.0168 535.636 29.9938 533.919 29.9938L533.92 29.9958ZM546.84 31.8398C547.548 31.8398 548.02 31.3728 548.32 30.7138L552.097 22.1408C552.19 21.9488 552.241 21.7388 552.247 21.5248C552.247 20.8248 551.69 20.2948 550.982 20.2948C550.295 20.2948 549.952 20.7398 549.759 21.1848L546.798 28.6548L543.879 21.2288C543.665 20.6968 543.299 20.2948 542.592 20.2948C541.884 20.2948 541.305 20.8888 541.305 21.5248C541.305 21.7578 541.391 21.9708 541.455 22.1618L545.232 30.7138C545.532 31.3938 546.004 31.8388 546.711 31.8388H546.841L546.84 31.8398ZM559.054 31.8398C559.762 31.8398 560.234 31.3728 560.534 30.7138L564.311 22.1408C564.404 21.9488 564.455 21.7388 564.461 21.5248C564.461 20.8248 563.904 20.2948 563.196 20.2948C562.509 20.2948 562.166 20.7398 561.973 21.1848L559.011 28.6548L556.093 21.2288C555.878 20.6968 555.513 20.2948 554.806 20.2948C554.098 20.2948 553.519 20.8888 553.519 21.5248C553.519 21.7578 553.605 21.9708 553.669 22.1618L557.444 30.7138C557.746 31.3938 558.218 31.8388 558.926 31.8388L559.054 31.8398ZM568.607 35.0868C570.432 35.0868 571.461 34.2378 572.427 31.9468L576.568 22.1188C576.611 21.9918 576.675 21.7168 576.675 21.5038C576.675 20.8238 576.117 20.2938 575.431 20.2938C574.765 20.2938 574.4 20.7398 574.186 21.2698L571.354 28.7198L568.307 21.2698C568.071 20.6758 567.706 20.2948 567.041 20.2948C566.312 20.2948 565.754 20.8248 565.754 21.5468C565.754 21.7158 565.817 21.9708 565.904 22.1618L570.109 31.4578L570.023 31.6908C569.594 32.5608 569.187 32.8808 568.414 32.8808C568.049 32.8808 567.813 32.8158 567.513 32.7308C567.384 32.6888 567.256 32.6458 567.041 32.6458C566.831 32.6442 566.625 32.7059 566.451 32.8227C566.277 32.9395 566.141 33.1061 566.063 33.3008C566.011 33.4301 565.986 33.5686 565.99 33.7078C565.99 34.3228 566.419 34.6418 566.805 34.7688C567.341 34.9798 567.878 35.0868 568.607 35.0868ZM586.378 31.8818C588.803 31.8818 590.412 31.1168 591.829 29.8878C591.962 29.7714 592.07 29.6279 592.144 29.4669C592.218 29.3059 592.257 29.131 592.258 28.9538C592.258 28.2958 591.679 27.7438 591.013 27.7438C590.691 27.7438 590.412 27.8718 590.219 28.0398C589.125 28.9538 588.051 29.4618 586.464 29.4618C583.589 29.4618 581.507 27.1068 581.507 24.1998V24.1568C581.507 21.2488 583.611 18.9138 586.464 18.9138C587.902 18.9138 589.018 19.4238 590.047 20.2518C590.276 20.4213 590.555 20.5106 590.841 20.5058C591.572 20.5058 592.151 19.9548 592.151 19.2328C592.151 18.7658 591.914 18.4058 591.636 18.1928C590.326 17.1948 588.803 16.5168 586.485 16.5168C581.936 16.5168 578.74 19.9768 578.74 24.1998V24.2418C578.74 28.5068 582.001 31.8818 586.378 31.8818ZM598.163 31.8608C599.902 31.8608 601.081 31.1398 601.855 30.2268V30.6508C601.855 31.2248 602.369 31.7338 603.119 31.7338C603.828 31.7338 604.386 31.2028 604.386 30.5028V24.9848C604.386 23.5198 604 22.3318 603.162 21.5248C602.369 20.7188 601.103 20.2728 599.408 20.2728C597.927 20.2728 596.833 20.5278 595.76 20.9318C595.555 21.0134 595.379 21.1534 595.252 21.3343C595.126 21.5153 595.056 21.7293 595.051 21.9498C595.051 22.5438 595.546 23.0098 596.146 23.0098C596.284 23.0088 596.421 22.9868 596.553 22.9468C597.262 22.6708 598.077 22.5018 599.064 22.5018C600.888 22.5018 601.875 23.3498 601.875 24.9428V25.2178C600.891 24.8983 599.862 24.7406 598.828 24.7508C596.061 24.7508 594.15 25.9398 594.15 28.3588V28.4018C594.15 30.6518 596.039 31.8608 598.163 31.8608ZM598.892 29.9928C597.648 29.9928 596.683 29.3778 596.683 28.2948V28.2528C596.683 27.0848 597.67 26.3858 599.343 26.3858C600.374 26.3858 601.253 26.5758 601.918 26.8308V27.5958C601.918 29.0158 600.608 29.9928 598.892 29.9928ZM608.896 31.7328C609.626 31.7328 610.205 31.1828 610.205 30.4598V17.3028C610.205 16.6028 609.626 16.0298 608.896 16.0298C608.167 16.0298 607.608 16.6018 607.608 17.3028V30.4608C607.608 31.1838 608.189 31.7348 608.896 31.7348V31.7328Z" fill="#898989"/>
<path fill-rule="evenodd" clip-rule="evenodd" d="M728.278 34.1769C728.278 36.6199 727.428 37.6189 725.113 37.6189H704.571C702.255 37.6189 701.406 36.6189 701.406 34.1769V29.4199C701.406 27.1259 700.301 25.8299 699.239 25.2359C699.166 25.1916 699.105 25.1293 699.063 25.0548C699.022 24.9804 699 24.8964 699 24.8109C699 24.7255 699.022 24.6415 699.063 24.5671C699.105 24.4926 699.166 24.4302 699.239 24.3859C700.344 23.6849 701.406 22.2189 701.406 20.2649V15.5899C701.406 12.9559 702.128 12.1899 704.443 12.1899H725.241C727.557 12.1899 728.279 12.9559 728.279 15.5899V20.2629C728.279 22.2169 729.341 23.6829 730.445 24.3829C730.765 24.5959 730.765 25.0429 730.445 25.2329C729.383 25.8489 728.279 27.1449 728.279 29.4179V34.1759L728.278 34.1769ZM708.82 31.0549C710.498 32.5199 712.304 33.2639 714.79 33.2639C718.698 33.2639 721.247 31.3099 721.247 28.1439C721.247 24.7919 718.211 23.9369 715.742 23.2419C714.049 22.7649 712.622 22.3619 712.622 21.2819C712.622 20.5819 713.366 19.9019 714.619 19.9019C715.83 19.9019 716.829 20.1579 717.784 20.6459C718.104 20.7949 718.4 20.9009 718.676 20.9009C719.08 20.9009 719.399 20.7099 719.676 20.3279L720.057 19.7539C720.207 19.5419 720.27 19.3079 720.27 19.0539C720.27 18.6279 720.057 18.2039 719.74 17.9909C718.464 17.1839 716.743 16.5039 714.407 16.5039C711.093 16.5039 708.544 18.2459 708.544 21.3679C708.544 24.8579 711.646 25.7449 714.13 26.4529C715.787 26.9259 717.168 27.3199 717.168 28.3569C717.168 29.3549 716.234 29.8439 715.065 29.8439C713.661 29.8573 712.286 29.4505 711.115 28.6759C710.753 28.4419 710.413 28.2929 710.052 28.2929C709.733 28.2929 709.457 28.4419 709.202 28.7609L708.692 29.4189C708.502 29.6319 708.438 29.9079 708.438 30.1629C708.438 30.4809 708.544 30.7999 708.82 31.0549ZM740.556 29.0999C740.28 29.0999 740.046 29.2069 739.834 29.4829L739.409 30.0779C739.239 30.2679 739.196 30.5019 739.196 30.7149C739.196 30.9909 739.302 31.2669 739.536 31.4799C740.938 32.6899 742.468 33.3279 744.571 33.3279C747.863 33.3279 750.031 31.6709 750.031 29.0149C750.031 26.1909 747.462 25.4699 745.376 24.8839C743.947 24.4819 742.744 24.1439 742.744 23.2379C742.744 22.6219 743.381 22.0679 744.422 22.0679C745.345 22.065 746.256 22.2842 747.077 22.7069L747.141 22.7309C747.393 22.8289 747.626 22.9189 747.841 22.9189C748.161 22.9189 748.437 22.7689 748.671 22.4289L749.011 21.9419C749.126 21.7572 749.185 21.5434 749.181 21.3259C749.181 20.9649 749.011 20.6039 748.734 20.4339C747.651 19.7109 746.206 19.1589 744.231 19.1589C741.448 19.1589 739.281 20.6459 739.281 23.2789C739.281 26.2069 741.896 26.9539 743.993 27.5519C745.396 27.9519 746.567 28.2869 746.567 29.1639C746.567 30.0339 745.781 30.4389 744.783 30.4389C743.487 30.4389 742.403 30.0779 741.448 29.4389C741.172 29.2279 740.832 29.0999 740.556 29.0999ZM760.842 31.3949C760.845 31.2137 760.793 31.0358 760.693 30.8849L760.417 30.4389C760.162 29.9929 759.865 29.8229 759.482 29.8229C759.292 29.8229 759.079 29.8649 758.802 29.9709C758.527 30.0779 758.208 30.1199 757.847 30.1199C756.721 30.1199 756.232 29.1429 756.232 27.6769V22.7499H759.482C760.098 22.7499 760.608 22.2399 760.608 21.6239V20.6039C760.608 19.9889 760.098 19.4789 759.482 19.4789H756.232V16.8449C756.232 16.2289 755.722 15.7189 755.107 15.7189H753.897C753.28 15.7189 752.77 16.2289 752.77 16.8449V27.8049C752.77 31.2679 753.917 33.2439 756.955 33.2439C758.293 33.2439 759.313 32.9679 760.332 32.3509C760.672 32.1809 760.842 31.7769 760.842 31.3949ZM767.724 24.6399C764.984 24.6399 762.796 26.0419 762.796 29.0149C762.796 31.6279 764.559 33.1579 766.96 33.1789C768.786 33.1789 770.23 32.4779 770.953 31.4589V31.9039C770.953 32.5199 771.463 33.0299 772.079 33.0299H772.865C773.481 33.0299 773.991 32.5199 773.991 31.9039V24.8099C773.991 21.2419 772.611 19.2029 768.617 19.2029C767.237 19.2029 765.897 19.5629 764.729 20.0949C764.369 20.2649 764.092 20.6679 764.092 21.0509C764.097 21.1733 764.125 21.2937 764.174 21.4059C764.19 21.4509 764.207 21.4959 764.219 21.5389L764.389 21.8989C764.602 22.3249 764.963 22.5379 765.409 22.5379C765.543 22.5379 765.69 22.4979 765.83 22.4599L765.94 22.4299C766.577 22.2189 767.236 22.0699 768.255 22.0699C770.125 22.0699 770.762 23.1319 770.762 25.1079V25.5119C770.103 25.0219 768.914 24.6409 767.724 24.6409V24.6399ZM768.404 26.9549C769.381 26.9549 770.146 27.1669 770.762 27.6139H770.783V29.0139C770.358 29.5889 769.615 30.2259 768.17 30.2259C767.066 30.2259 766.237 29.6529 766.237 28.6329C766.237 27.4859 767.257 26.9549 768.404 26.9549ZM785.314 31.3949C785.317 31.2136 785.265 31.0357 785.164 30.8849L784.888 30.4389C784.633 29.9929 784.336 29.8229 783.953 29.8229C783.763 29.8229 783.55 29.8649 783.273 29.9709C782.997 30.0779 782.679 30.1199 782.318 30.1199C781.192 30.1199 780.703 29.1429 780.703 27.6769V22.7499H783.953C784.569 22.7499 785.079 22.2399 785.079 21.6239V20.6039C785.079 19.9889 784.569 19.4789 783.953 19.4789H780.703V16.8449C780.703 16.2289 780.193 15.7189 779.577 15.7189H778.367C777.751 15.7189 777.241 16.2289 777.241 16.8449V27.8049C777.241 31.2679 778.388 33.2439 781.425 33.2439C782.765 33.2439 783.783 32.9679 784.803 32.3509C785.143 32.1809 785.314 31.7769 785.314 31.3949ZM792.195 24.6399C789.455 24.6399 787.267 26.0419 787.267 29.0149C787.267 31.6279 789.051 33.1579 791.43 33.1789C793.257 33.1789 794.702 32.4779 795.424 31.4589V31.9039C795.424 32.5199 795.934 33.0299 796.55 33.0299H797.336C797.952 33.0299 798.462 32.5199 798.462 31.9039V24.8099C798.462 21.2419 797.081 19.2029 793.087 19.2029C791.707 19.2029 790.368 19.5629 789.2 20.0949C788.84 20.2649 788.563 20.6679 788.563 21.0509C788.568 21.1733 788.596 21.2937 788.645 21.4059C788.661 21.4509 788.678 21.4959 788.69 21.5389L788.86 21.8989C789.073 22.3249 789.434 22.5379 789.88 22.5379C790.014 22.5379 790.161 22.4979 790.3 22.4599L790.41 22.4299C791.048 22.2189 791.707 22.0699 792.726 22.0699C794.596 22.0699 795.233 23.1319 795.233 25.1079V25.5119C794.574 25.0219 793.385 24.6409 792.195 24.6409V24.6399ZM792.875 26.9549C793.852 26.9549 794.617 27.1669 795.233 27.6139H795.254V29.0139C794.829 29.5889 794.086 30.2259 792.641 30.2259C791.537 30.2259 790.708 29.6529 790.708 28.6329C790.708 27.4859 791.728 26.9549 792.875 26.9549ZM809.677 19.2449C808.02 19.2449 806.427 19.9029 805.471 20.9649H805.408V20.5819C805.408 19.9659 804.898 19.4559 804.282 19.4559H803.071C802.455 19.4559 801.945 19.9659 801.945 20.5819V31.8619C801.945 32.4779 802.455 32.9879 803.071 32.9879H804.282C804.898 32.9879 805.408 32.4779 805.408 31.8619V23.9169C806.024 23.0039 807.022 22.4729 808.233 22.4729C809.677 22.4729 810.463 23.3859 810.463 24.8099V31.8199C810.463 32.4349 810.973 32.9449 811.589 32.9449H812.8C813.416 32.9449 813.926 32.4349 813.926 31.8189V24.9999C813.926 24.8239 813.919 24.6039 813.914 24.4059C813.909 24.2439 813.904 24.0959 813.904 24.0009C814.372 23.0879 815.391 22.4509 816.687 22.4509C818.323 22.4509 819.003 23.3639 819.003 25.0409V31.8609C819.003 32.4769 819.512 32.9869 820.128 32.9869H821.339C821.955 32.9869 822.465 32.4769 822.465 31.8609V24.1709C822.465 20.4539 820.617 19.2429 818.153 19.2429C816.071 19.2429 814.563 20.1349 813.607 21.4099C813.119 20.1779 811.738 19.2429 809.677 19.2429V19.2449ZM828.285 16.7799C829.262 16.7799 830.261 15.9939 830.261 14.6129C830.261 13.4029 829.262 12.6169 828.285 12.6169C827.117 12.6169 826.119 13.4029 826.119 14.6129C826.119 15.9929 827.117 16.7799 828.285 16.7799ZM829.942 20.6039C829.942 19.9879 829.432 19.4779 828.816 19.4779V19.4559H827.606C826.99 19.4559 826.48 19.9659 826.48 20.5819V31.8619C826.48 32.4779 826.99 32.9879 827.606 32.9879H828.816C829.432 32.9879 829.942 32.4779 829.942 31.8619V20.6039ZM840.882 22.3879C841.753 22.3879 842.454 22.5369 843.261 22.9179C843.404 22.9979 843.559 23.0299 843.699 23.0579L843.834 23.0879C844.238 23.0879 844.62 22.8339 844.854 22.4519L845.3 21.6659C845.406 21.5159 845.428 21.3459 845.428 21.1759C845.428 20.7949 845.236 20.3489 844.897 20.1789C843.58 19.4559 842.263 19.1589 840.457 19.1589C836.336 19.1589 833.468 22.3029 833.468 26.2329C833.468 30.4809 836.421 33.3059 840.882 33.3059C842.56 33.3059 843.983 33.0089 845.598 31.7129C845.852 31.5219 846.001 31.1179 846.001 30.7569C846.001 30.5239 845.937 30.2899 845.789 30.1409L845.279 29.5039C845.166 29.3644 845.024 29.2518 844.862 29.1747C844.7 29.0975 844.523 29.0576 844.344 29.0579C844.111 29.0579 843.856 29.1429 843.622 29.2919C842.836 29.8019 842.071 30.0779 841.009 30.0779C838.97 30.0779 837.122 28.5909 837.122 26.2119C837.122 23.8539 838.949 22.3879 840.882 22.3879Z" fill="#898989"/>
<g clip-path="url(#clip0_5_612)">
<path fill-rule="evenodd" clip-rule="evenodd" d="M960.837 4.5H928.727C926.117 4.5 924 6.607 924 9.206V39.47C924 42.07 926.116 44.176 928.727 44.176H960.837C963.448 44.176 965.565 42.069 965.565 39.47V9.206C965.565 6.606 963.448 4.5 960.837 4.5ZM933.48 17.949H937.122C939.207 17.949 940.514 19.139 940.514 21.035C940.514 22.958 939.277 24.093 937.164 24.093H933.479L933.48 17.949ZM933.48 27.303H936.914L940.654 34.541H945.407L941.181 26.653C943.489 25.74 944.823 23.525 944.823 20.979C944.823 17.008 942.113 14.572 937.706 14.572H929.281V34.541H933.48V27.303ZM956.548 25.311C956.465 23.291 955.242 22.031 953.351 22.031C951.474 22.031 950.154 23.331 950.015 25.311H956.548ZM953.504 31.773C955.103 31.773 956.201 31.206 956.632 30.195H960.399C959.787 33.074 957.146 34.873 953.393 34.873C948.723 34.873 945.97 31.939 945.97 26.985C945.97 22.017 948.778 18.945 953.337 18.945C957.855 18.945 960.524 21.81 960.524 26.653V27.884H950V28.092C950.055 30.362 951.39 31.772 953.503 31.772L953.504 31.773ZM969.694 34.54H973.739V22.598H976.909V19.43H973.656V18.17C973.656 16.87 974.24 16.247 975.824 16.247C976.353 16.247 976.77 16.288 977.034 16.316V13.466C976.344 13.3579 975.647 13.3068 974.949 13.313C971.251 13.313 969.694 14.849 969.694 17.879V19.429H967.22V22.599H969.694V34.54ZM992.527 26.902C992.527 31.898 989.691 34.872 984.979 34.872C980.267 34.872 977.431 31.898 977.431 26.902C977.431 21.962 980.308 18.945 984.979 18.945C989.649 18.945 992.527 21.948 992.527 26.902ZM981.587 26.902C981.587 29.877 982.81 31.579 984.979 31.579C987.133 31.579 988.371 29.863 988.371 26.902C988.371 23.968 987.12 22.239 984.979 22.239C982.824 22.239 981.587 23.969 981.587 26.902ZM994.407 34.541H998.452V26.086C998.452 23.941 999.968 22.64 1002.18 22.64C1002.83 22.64 1003.78 22.765 1004.1 22.89V19.222C1003.75 19.097 1003.07 19.028 1002.51 19.028C1000.57 19.028 998.981 20.191 998.577 21.713H998.327V19.277H994.407V34.541ZM1009.57 34.541H1005.52V19.277H1009.44V21.768H1009.69C1010.32 20.025 1011.92 18.945 1013.93 18.945C1016.09 18.945 1017.56 19.997 1018.17 21.768H1018.42C1019.13 20.066 1020.9 18.945 1023.04 18.945C1026.1 18.945 1028 20.925 1028 24.065V34.541H1023.96V25.131C1023.96 23.318 1023.11 22.419 1021.4 22.419C1019.76 22.419 1018.7 23.581 1018.7 25.2V34.54H1014.81V24.965C1014.81 23.345 1013.86 22.419 1012.28 22.419C1010.7 22.419 1009.57 23.65 1009.57 25.352V34.541Z" fill="#898989"/>
</g>
<defs>
<clipPath id="clip0_5_612">
<rect width="104" height="48" fill="white" transform="translate(924 0.5)"/>
</clipPath>
</defs>
</svg>
