<svg width="10" height="10" viewBox="0 0 10 10" fill="none" xmlns="http://www.w3.org/2000/svg">
<path d="M4.04894 1.42705C4.3483 0.505738 5.6517 0.505739 5.95106 1.42705L6.34708 2.6459C6.48096 3.05792 6.86491 3.33688 7.29814 3.33688H8.57971C9.54844 3.33688 9.95121 4.5765 9.1675 5.1459L8.13068 5.89919C7.7802 6.15383 7.63354 6.6052 7.76741 7.01722L8.16344 8.23607C8.46279 9.15738 7.40831 9.9235 6.6246 9.3541L5.58778 8.60081C5.2373 8.34617 4.7627 8.34617 4.41221 8.60081L3.3754 9.3541C2.59169 9.9235 1.53721 9.15738 1.83656 8.23607L2.23259 7.01722C2.36646 6.6052 2.2198 6.15383 1.86932 5.89919L0.832501 5.1459C0.0487874 4.5765 0.451563 3.33688 1.42029 3.33688H2.70186C3.13509 3.33688 3.51904 3.05792 3.65292 2.6459L4.04894 1.42705Z" fill="#FFC121"/>
</svg>
